<?xml version="1.0" encoding="utf-8"?>
<!-- Generator: Adobe Illustrator 24.1.0, SVG Export Plug-In . SVG Version: 6.00 Build 0)  -->
<svg version="1.1" id="Layer_1" xmlns="http://www.w3.org/2000/svg" xmlns:xlink="http://www.w3.org/1999/xlink" x="0px" y="0px"
	 viewBox="0 0 438.9 439.9" style="enable-background:new 0 0 438.9 439.9;" xml:space="preserve">
<style type="text/css">
	.st0{fill-rule:evenodd;clip-rule:evenodd;fill:#0050C4;}
</style>
<path id="lines" class="st0" d="M277.3,419.6V419c0.7-30.7,14.2-61.5,22.6-92.2c0-0.2,0.1-0.4,0.2-0.7c8.3-30.7,11.2-61.5-9.8-92.2
	c-0.1-0.2-0.3-0.4-0.4-0.7c-20.4-30.7-68.6-61.5-144.8-92.2c-0.5-0.2-1.1-0.4-1.6-0.7c-33-13.5-70.9-27.1-107.8-40.6
	c0.5-0.8,1-1.5,1.5-2.3c37.2,13.7,75.7,27.5,109.2,41.2c0.5,0.2,1.1,0.4,1.6,0.6c76.3,30.7,124.8,61.5,145.4,92.3
	c0.1,0.2,0.3,0.4,0.5,0.6c21.2,30.7,18.4,61.5,10.1,92.3c0,0.2-0.1,0.4-0.2,0.6c-8.3,30.7-21.9,61.5-22.9,92.2c0,0.2,0,0.4,0,0.6
	c-0.1,4.4,0,8.9,0.5,13.3c-1.2,0.3-2.4,0.7-3.6,1C277.4,428,277.2,423.8,277.3,419.6z M295.6,411.2c0-0.2,0-0.4,0.1-0.6
	c1.8-30.7,15.8-61.5,24-92.2c0.1-0.2,0.1-0.4,0.2-0.7c8.1-30.7,10.3-61.5-11.9-92.3c-0.2-0.2-0.3-0.4-0.5-0.6
	c-21.6-30.7-71.3-61.5-148-92.2c-0.5-0.2-1.1-0.4-1.6-0.7c-35.3-14.4-76-28.8-114.5-43.2c0.5-0.7,1.1-1.4,1.6-2.1
	c38.6,14.6,79.8,29.1,115.5,43.7c0.6,0.2,1.1,0.4,1.6,0.6c76.9,30.7,127,61.5,148.7,92.3l0.5,0.6c22.3,30.7,20.4,61.5,12.3,92.3
	c0,0.2-0.1,0.4-0.1,0.6c-8.2,30.7-22.2,61.5-24.3,92.2c0,0.2,0,0.4,0,0.6c-0.3,5.2-0.3,10.4,0.2,15.6c-1.2,0.5-2.5,0.9-3.7,1.4
	C295.3,421.4,295.3,416.3,295.6,411.2z M314.4,402.7c0-0.2,0-0.4,0-0.6c2.8-30.8,17.1-61.5,25-92.3c0.1-0.2,0.1-0.4,0.2-0.6
	c7.8-30.7,9-61.5-14.4-92.3c-0.2-0.2-0.3-0.4-0.5-0.6c-22.8-30.7-74.3-61.5-151.9-92.3l-1.6-0.6C134,108.3,91.1,93.3,51.7,78.2
	c0.6-0.7,1.1-1.3,1.7-2c39.5,15.2,82.8,30.4,120.3,45.6l1.6,0.6c77.6,30.7,129.6,61.5,152.7,92.2c0.2,0.2,0.3,0.4,0.5,0.7
	c23.7,30.7,22.8,61.5,15.1,92.2c-0.1,0.2-0.1,0.4-0.2,0.7c-7.8,30.7-22.2,61.5-25.1,92.2c0,0.2,0,0.4-0.1,0.6
	c-0.5,5.3-0.6,10.7-0.3,16c-1.2,0.6-2.4,1.2-3.7,1.8C313.8,413.5,313.9,408.1,314.4,402.7L314.4,402.7z M333.5,393.7
	c3.6-30.8,18.1-61.5,25.5-92.3c0.1-0.2,0.1-0.4,0.2-0.6c7.3-30.7,7.4-61.5-17.5-92.3c-0.2-0.2-0.3-0.4-0.5-0.6
	c-24.2-30.7-77.7-61.5-156.2-92.3c-0.6-0.2-1.1-0.4-1.6-0.6c-38.7-15.5-83.2-31-122.9-46.5c0.6-0.6,1.2-1.2,1.8-1.9
	c39.8,15.6,84.5,31.1,123.4,46.7c0.5,0.2,1.1,0.4,1.6,0.7c78.7,30.7,132.7,61.5,157.2,92.2c0.2,0.2,0.4,0.4,0.5,0.7
	c25.2,30.7,25.4,61.5,18.2,92.2c-0.1,0.2-0.1,0.4-0.2,0.6c-7.3,30.7-21.8,61.5-25.6,92.3c0,0.2,0,0.4-0.1,0.6
	c-0.6,4.6-0.8,9.3-0.8,14c-1.2,0.8-2.5,1.6-3.8,2.3c-0.1-4.9,0.2-9.7,0.7-14.6C333.5,394.1,333.5,393.9,333.5,393.7L333.5,393.7z
	 M353,385.2c4.2-30.8,18.7-61.5,25.5-92.3c0.1-0.2,0.1-0.4,0.2-0.6c6.7-30.7,5.5-61.5-21-92.3c-0.2-0.2-0.4-0.4-0.6-0.6
	c-25.8-30.7-81.5-61.5-161.2-92.3c-0.5-0.2-1.1-0.4-1.6-0.6c-39.7-15.7-85-31.3-124.7-47c0.6-0.6,1.2-1.1,1.8-1.7
	c39.7,15.7,85.1,31.3,124.9,47c0.6,0.2,1.1,0.4,1.7,0.7c80,30.7,136.2,61.5,162.3,92.2c0.2,0.2,0.4,0.4,0.5,0.7
	c26.8,30.7,28.3,61.5,21.8,92.2c0,0.2,0,0.4-0.1,0.6c-6.6,30.7-21.1,61.5-25.4,92.3c-0.1,0.2-0.1,0.4-0.1,0.6
	c-0.4,2.9-0.7,5.9-0.9,8.8c-1.3,1-2.6,2-3.9,3c0.2-3.4,0.5-6.8,0.9-10.1C352.9,385.6,352.9,385.4,353,385.2L353,385.2z M372.5,376.8
	c4.7-30.7,19-61.5,25-92.3c0-0.2,0-0.4,0.1-0.6c5.9-30.7,3.3-61.5-25-92.3c-0.2-0.2-0.4-0.4-0.6-0.6
	c-27.5-30.7-85.6-61.5-166.8-92.3c-0.6-0.2-1.1-0.4-1.7-0.6c-40.2-15.6-85.5-31.2-124.9-46.7c0.6-0.5,1.2-1,1.9-1.5
	c39.3,15.5,84.5,31.1,124.8,46.6c0.6,0.2,1.1,0.4,1.7,0.7c81.5,30.7,140.1,61.5,168,92.2c0.2,0.2,0.4,0.4,0.6,0.6
	c28.6,30.7,31.5,61.5,25.8,92.3c-0.1,0.2-0.1,0.4-0.2,0.6c-5.7,30.6-19.9,61.2-24.8,91.8c-1.4,1.4-2.8,2.8-4.3,4.2
	c0.1-0.5,0.1-0.9,0.2-1.4C372.4,377.2,372.4,377,372.5,376.8L372.5,376.8z M416.2,275.4c4.9-30.7,0.8-61.5-29.3-92.2
	c-0.2-0.2-0.4-0.4-0.6-0.6c-29.4-30.7-90.1-61.5-173.1-92.3c-0.6-0.2-1.1-0.4-1.7-0.6C171.2,74.4,126.7,59.2,88,43.9
	c0.6-0.5,1.2-0.9,1.9-1.4c38.5,15.1,82.8,30.2,122.9,45.4c0.6,0.2,1.2,0.4,1.8,0.6c83.3,30.7,144.6,61.5,174.4,92.3l0.6,0.6
	c30.6,30.7,35,61.5,30.2,92.3c0,0.2,0,0.4-0.1,0.6c-3.7,23.8-12.9,47.5-19.2,71.3c-1.7,2.5-3.5,5-5.4,7.4
	c6.3-25.7,16.7-51.3,20.9-77C416.1,275.8,416.1,275.6,416.2,275.4z M434.1,266.9c3.8-30.7-1.8-61.5-34.1-92.2
	c-0.2-0.2-0.5-0.4-0.7-0.6c-31.4-30.7-95-61.5-180-92.3c-0.6-0.2-1.1-0.4-1.7-0.6c-39.6-14.6-82.7-29.3-120.4-43.9
	c0.6-0.4,1.3-0.8,1.9-1.2c37.4,14.5,80.2,28.9,119.5,43.4c0.6,0.2,1.1,0.4,1.7,0.6c85.3,30.7,149.5,61.5,181.4,92.3
	c0.2,0.2,0.4,0.4,0.6,0.6c25.9,24.3,35.1,48.5,36,72.8c-1.2,10.5-3.2,20.8-5.9,31c0.6-3.1,1.1-6.1,1.5-9.2
	C434.1,267.4,434.1,267.2,434.1,266.9z M412.1,166.3c-0.2-0.2-0.5-0.4-0.7-0.7C377.7,134.9,311,104.1,224,73.4
	c-0.6-0.2-1.2-0.4-1.8-0.6C183.9,59,142.8,45.2,106.6,31.4c0.6-0.4,1.2-0.7,1.9-1.1c35.9,13.6,76.5,27.2,114.4,40.8
	c0.6,0.2,1.2,0.4,1.8,0.6c87.6,30.7,154.9,61.5,189,92.3c0.2,0.2,0.5,0.4,0.7,0.6c9,7.7,16.9,16.5,23.7,26.3
	c0.3,2.4,0.6,4.9,0.8,7.3C432.7,187.6,424,176.9,412.1,166.3z M423.1,157.8c-0.3-0.2-0.5-0.4-0.8-0.7c-36-30.7-106-61.5-195.6-92.2
	c-0.6-0.2-1.2-0.4-1.8-0.7c-36.3-12.7-74.7-25.4-109-38.2c0.6-0.3,1.2-0.7,1.8-1c33.9,12.5,71.7,25,107.5,37.5
	c0.6,0.2,1.2,0.4,1.9,0.6c90,30.7,160.8,61.5,197.3,92.3c0.3,0.2,0.5,0.4,0.8,0.6c2.5,2.1,4.9,4.2,7.2,6.2c0.4,1.7,0.9,3.3,1.3,5
	C430.4,164.2,426.9,161,423.1,157.8L423.1,157.8z M225.7,55.8C192,44.4,156.9,32.9,125,21.4c0.6-0.3,1.2-0.6,1.9-0.9
	c31.4,11.2,65.7,22.4,98.8,33.6c0.6,0.2,1.2,0.4,1.9,0.6c86.3,28.6,156.9,57.3,197.7,85.9c0.5,1.3,1,2.7,1.5,4
	c-39.7-29.4-111-58.8-199.1-88.2C227,56.3,226.4,56.1,225.7,55.8L225.7,55.8z M224.7,47.4c-30.4-10-61.6-20.1-90.5-30.1
	c0.6-0.3,1.2-0.5,1.9-0.8c28.2,9.7,58.6,19.5,88.2,29.2l2,0.6c79.1,25.5,146.5,50.9,191.1,76.4c0.6,1.1,1.1,2.2,1.6,3.4
	c-44-26-112-52-192.3-78C226,47.8,225.4,47.6,224.7,47.4L224.7,47.4z M221.8,38.9c-26.3-8.4-53.1-16.9-78.3-25.3
	c0.6-0.2,1.2-0.5,1.9-0.7c24.4,8.1,50.2,16.2,75.6,24.3c0.7,0.2,1.4,0.4,2,0.7c73.9,23.1,139.1,46.2,185.9,69.2c0.6,1,1.2,2,1.8,3
	c-46.4-23.5-112-47-186.8-70.6C223.1,39.4,222.5,39.1,221.8,38.9z M216.9,30.5c-21.6-6.7-43.2-13.4-64-20.1c0.6-0.2,1.3-0.4,1.9-0.6
	c19.8,6.3,40.4,12.7,60.9,19c0.7,0.2,1.4,0.4,2.1,0.7c70.1,21.2,133.7,42.5,182,63.7c0.6,0.9,1.3,1.8,1.9,2.7
	C353.6,74.3,289.8,52.7,219,31.1C218.3,30.9,217.6,30.7,216.9,30.5L216.9,30.5z M210.1,22c-16-4.8-32-9.7-47.6-14.5
	c0.6-0.2,1.3-0.4,1.9-0.5c14.4,4.4,29.2,8.9,44,13.3c0.7,0.2,1.4,0.4,2.1,0.6C278,40.8,340.5,60.6,390.1,80.4c0.7,0.8,1.3,1.6,2,2.5
	c-49.4-20.1-112-40.1-179.9-60.2C211.5,22.5,210.8,22.3,210.1,22z M201.3,13.6c-9.6-2.8-19.2-5.7-28.8-8.5c0.7-0.2,1.4-0.3,2.1-0.5
	c8.2,2.4,16.4,4.8,24.7,7.3c0.7,0.2,1.5,0.4,2.2,0.6c65.3,18.7,127.3,37.4,178.1,56.1c0.7,0.8,1.4,1.5,2.1,2.3
	C331.2,52,269.2,33.1,203.5,14.2C202.8,14,202.1,13.8,201.3,13.6z M190.7,5.1c-2.5-0.7-4.9-1.4-7.4-2.1c0.7-0.1,1.5-0.2,2.2-0.4
	c0.9,0.3,1.9,0.5,2.8,0.8c0.7,0.2,1.5,0.4,2.3,0.6c63.8,17.8,125.6,35.6,177.7,53.4c0.8,0.7,1.6,1.5,2.3,2.2
	C318.8,41.7,257,23.7,192.9,5.8L190.7,5.1z M133,147.7c76,30.7,122.9,61.5,142.6,92.3c0.1,0.2,0.3,0.4,0.4,0.6
	c20.1,30.7,16.6,61.5,8.4,92.3c0,0.2-0.1,0.4-0.1,0.6c-8.4,30.7-21.2,61.5-21,92.2c0,0.2,0,0.5,0,0.7c0,3.1,0.2,6.1,0.5,9.2
	c-1.2,0.2-2.3,0.5-3.5,0.7c-0.3-2.7-0.4-5.5-0.5-8.2v-0.6c-0.5-30.7,12.2-61.5,20.6-92.2c0.1-0.2,0.1-0.4,0.2-0.7
	c8.2-30.7,11.8-61.5-8.1-92.2c-0.2-0.2-0.3-0.4-0.4-0.7c-19.5-30.7-66.2-61.5-142.1-92.2c-0.5-0.2-1-0.4-1.5-0.6
	c-30.4-12.5-65-25-99.7-37.4c0.4-0.8,0.9-1.6,1.4-2.4c35.2,12.7,70.5,25.4,101.4,38.1C131.9,147.3,132.4,147.5,133,147.7z
	 M117.1,156.2c75.9,30.7,121.4,61.5,140.3,92.3c0.2,0.2,0.3,0.4,0.4,0.6c19.3,30.7,15.2,61.5,7.1,92.3c0,0.2-0.1,0.4-0.2,0.6
	c-8.2,30.7-20.2,61.5-18.7,92.2v0.7c0.1,1.2,0.2,2.3,0.3,3.5c-1.1,0.1-2.3,0.3-3.4,0.4c-0.1-0.7-0.1-1.5-0.2-2.2
	c0-0.2,0-0.4-0.1-0.6c-1.8-30.7,10.1-61.5,18.2-92.2c0-0.2,0.1-0.4,0.1-0.6c8-30.7,12.2-61.5-6.9-92.3l-0.4-0.6
	c-18.7-30.7-64-61.5-139.9-92.3c-0.5-0.2-1.1-0.4-1.6-0.6c-27.4-11.2-58.3-22.5-90.1-33.7c0.4-0.8,0.8-1.7,1.2-2.5
	c32.4,11.5,64.1,23,92.1,34.5C116.1,155.8,116.6,156,117.1,156.2L117.1,156.2z M100.7,164.6c75.9,30.7,120.3,61.5,138.4,92.3
	l0.4,0.6c18.5,30.7,14.1,61.5,6.3,92.2c0,0.2-0.1,0.4-0.1,0.6c-7.6,29.8-18.3,59.6-16.2,89.3c-1.1,0-2.3,0.1-3.4,0.1
	c-1.9-29.2,8.4-58.5,15.8-87.7c0.1-0.2,0.1-0.4,0.1-0.6c7.7-30.7,12.2-61.5-6.2-92.2c-0.1-0.2-0.2-0.4-0.4-0.6
	c-18-30.7-62.2-61.5-138.2-92.3c-0.5-0.2-1.1-0.4-1.6-0.6c-24.1-9.9-51.1-19.7-79.2-29.6c0.4-0.8,0.7-1.7,1.1-2.5
	c28.9,10.1,56.7,20.3,81.5,30.4L100.7,164.6z M83.8,173.1c76.2,30.7,119.5,61.5,137.1,92.2l0.4,0.6c17.9,30.7,13.2,61.5,5.9,92.3
	c-0.1,0.2-0.1,0.4-0.1,0.6c-6.6,27-15.1,54-14,81c-1.1,0-2.1-0.1-3.2-0.1c-0.9-26.4,7.2-52.8,13.5-79.1l0.2-0.6
	c7.2-30.7,11.9-61.5-5.9-92.3c-0.1-0.2-0.3-0.4-0.4-0.6c-17.5-30.7-60.6-61.5-136.8-92.3c-0.5-0.2-1.1-0.4-1.6-0.6
	c-20.6-8.4-43.3-16.7-67.2-25.1c0.3-0.9,0.6-1.7,0.9-2.6c24.8,8.7,48.4,17.3,69.7,26C82.8,172.7,83.3,172.9,83.8,173.1L83.8,173.1z
	 M66.8,181.6c76.5,30.7,118.9,61.5,136,92.2c0.1,0.2,0.3,0.4,0.4,0.7c17.4,30.7,12.7,61.5,5.9,92.2c-0.1,0.2-0.1,0.4-0.1,0.6
	c-5.4,23.8-11.9,47.7-11.7,71.5c-1-0.1-2-0.2-3-0.3c-0.1-23.1,6.1-46.3,11.1-69.4c0-0.2,0.1-0.4,0.1-0.6c6.6-30.7,11.4-61.5-6-92.3
	c-0.1-0.2-0.2-0.4-0.3-0.6C182.2,244.7,140,214,63.4,183.2c-0.6-0.2-1.1-0.4-1.6-0.6c-16.7-6.8-34.9-13.5-54.1-20.3
	c0.2-0.9,0.5-1.8,0.7-2.7c20.2,7.1,39.3,14.2,56.9,21.3C65.7,181.1,66.3,181.3,66.8,181.6L66.8,181.6z M49.7,190
	c77,30.7,118.5,61.5,135.3,92.2c0.1,0.2,0.2,0.4,0.3,0.7c17,30.7,12.3,61.5,6.3,92.2c0,0.2-0.1,0.4-0.1,0.6
	c-4.1,20.3-8.8,40.7-9.2,61c-1-0.2-1.9-0.3-2.9-0.5c0.5-19.6,4.9-39.2,8.7-58.8c0-0.2,0.1-0.4,0.1-0.6c5.9-30.7,10.6-61.5-6.3-92.2
	c-0.1-0.2-0.3-0.4-0.4-0.6c-16.8-30.7-58.1-61.5-135.2-92.3c-0.5-0.2-1-0.4-1.6-0.6c-12.6-5.1-26.1-10.1-40.3-15.2
	c0.2-0.9,0.4-1.8,0.6-2.7c15.2,5.4,29.6,10.8,43.1,16.2C48.6,189.6,49.2,189.8,49.7,190L49.7,190z M32.8,198.4
	c77.6,30.7,118.2,61.5,134.9,92.3l0.4,0.6c16.7,30.7,12.2,61.5,7,92.2c0,0.2-0.1,0.4-0.1,0.6c-2.9,16.5-6,33.1-6.8,49.6
	c-0.9-0.2-1.9-0.4-2.8-0.7c0.8-15.7,3.7-31.5,6.3-47.2c0-0.2,0.1-0.4,0.1-0.6c5.1-30.8,9.6-61.5-7.1-92.3c-0.1-0.2-0.2-0.4-0.3-0.6
	c-16.6-30.7-57.1-61.5-134.8-92.2c-0.6-0.2-1.1-0.4-1.7-0.7c-8.2-3.3-16.8-6.5-25.7-9.8c0.1-0.9,0.3-1.9,0.4-2.8
	c10,3.6,19.6,7.3,28.7,10.9L32.8,198.4z M16.2,206.9c78.2,30.7,118.1,61.5,134.6,92.3c0.1,0.2,0.2,0.4,0.3,0.6
	c16.5,30.7,12.3,61.5,7.9,92.2c0,0.2-0.1,0.5-0.1,0.7c-1.8,12.5-3.7,24.9-4.5,37.4c-0.9-0.3-1.8-0.6-2.6-0.9
	c0.8-11.6,2.4-23.2,4.1-34.8c0-0.2,0.1-0.4,0.1-0.6c4.1-30.7,8.4-61.5-8.2-92.2c-0.1-0.2-0.2-0.4-0.3-0.7
	c-16.5-30.7-56.3-61.5-134.6-92.2c-0.5-0.2-1.1-0.4-1.6-0.7c-3.5-1.4-7.1-2.8-10.8-4.1c0.1-0.9,0.2-1.9,0.2-2.8
	c4.7,1.8,9.3,3.5,13.7,5.3C15.1,206.5,15.6,206.7,16.2,206.9L16.2,206.9z M134.6,307.6c0.1,0.2,0.2,0.4,0.4,0.6
	c16.4,30.7,12.5,61.5,9.1,92.2c0,0.2-0.1,0.5-0.1,0.7c-0.9,8.1-1.8,16.3-2.4,24.4c-0.8-0.3-1.7-0.6-2.5-1c0.5-7.3,1.3-14.5,2.1-21.8
	c0-0.2,0-0.4,0.1-0.6c3.2-30.7,7-61.5-9.4-92.2c-0.1-0.2-0.2-0.4-0.3-0.7C115.2,278.9,77,248.6,0,218.2c0-1,0-1.9,0-2.9
	c0,0,0,0,0.1,0C78.9,246.1,118.2,276.8,134.6,307.6L134.6,307.6z M119.2,316c0.1,0.2,0.2,0.4,0.3,0.6c16.4,30.7,12.9,61.5,10.5,92.2
	c0,0.2-0.1,0.5-0.1,0.7c-0.3,3.6-0.6,7.2-0.8,10.8c-0.8-0.4-1.6-0.8-2.4-1.1c0.2-2.7,0.4-5.3,0.6-8c0-0.2,0-0.4,0.1-0.6
	c2.1-30.7,5.5-61.5-10.8-92.2c-0.1-0.2-0.2-0.4-0.3-0.6C101,289.5,67.6,261.3,0.4,233c-0.1-1-0.1-2-0.2-3
	C69.4,258.7,103.7,287.4,119.2,316L119.2,316z M104.5,324.5c0.1,0.2,0.2,0.4,0.3,0.6c15.8,29.8,13.5,59.5,12.2,89.3
	c-0.8-0.4-1.6-0.8-2.4-1.3c1.2-28.8,2.7-57.5-12.6-86.3c-0.1-0.2-0.3-0.4-0.4-0.6c-14-26-42.8-51.9-99.9-77.8
	c-0.1-1-0.2-2.1-0.4-3.1C60.6,271.6,90.2,298.1,104.5,324.5z M90.7,332.9c0.1,0.2,0.3,0.4,0.4,0.6c13.1,24.7,14.1,49.3,13.9,74
	c-0.8-0.5-1.6-1-2.4-1.5c0-23.6-1.6-47.2-14.1-70.7c-0.1-0.2-0.2-0.4-0.3-0.6c-12.7-23.4-36.9-46.8-83.6-70.2
	c-0.2-1.1-0.4-2.2-0.6-3.3C52.6,285,77.8,309,90.7,332.9z M77.9,341.4c0.1,0.2,0.2,0.4,0.3,0.6c10.1,19.1,13.2,38.2,14.4,57.3
	c-0.9-0.6-1.7-1.2-2.5-1.9c-1.4-17.9-4.7-35.9-14.3-53.8c-0.1-0.2-0.2-0.4-0.4-0.6c-11.1-20.5-30.8-41-66.7-61.4
	c-0.3-1.2-0.7-2.4-1-3.6C45.9,299.2,66.4,320.3,77.9,341.4L77.9,341.4z M66.1,349.8c0.1,0.2,0.2,0.4,0.4,0.6
	c6.3,12.1,10.6,25.1,12.7,38.5c-1-0.8-2-1.7-3-2.5c-2.3-11.9-6.3-23.5-12-34.3c-0.1-0.2-0.2-0.4-0.4-0.6
	c-9.1-16.8-23.8-33.5-48.3-50.3c-0.6-1.4-1.1-2.8-1.6-4.2C40.8,314.6,56.5,332.2,66.1,349.8L66.1,349.8z M55.3,358.3
	c0.1,0.2,0.2,0.4,0.3,0.6c2.4,4.5,4.5,9.2,6.3,14c-1.7-1.7-3.3-3.4-4.9-5.2c-1.1-2.4-2.2-4.7-3.5-7.1c-0.1-0.2-0.2-0.4-0.3-0.6
	c-6.5-11.8-14.9-22.5-24.7-31.7c-1.3-2.3-2.5-4.6-3.7-6.9C39,333.7,48.6,346,55.3,358.3L55.3,358.3z M197.4,1.1
	c56.1,15.2,110.7,30.5,158.3,45.7c0.9,0.7,1.7,1.4,2.6,2.1C309.4,33.1,252.9,17.2,195,1.4C195.8,1.3,196.6,1.2,197.4,1.1z M211,0.1
	c45.8,12.1,90.1,24.2,130.2,36.2c1,0.7,2.1,1.4,3.1,2.1C302.5,25.7,256.1,13,208.1,0.3C209.1,0.2,210.1,0.2,211,0.1L211,0.1z
	 M228,0.1c33.1,8.5,65.1,17,95.2,25.6c1.3,0.7,2.7,1.5,4,2.2C294.9,18.6,260.1,9.3,224.2,0C225.5,0,226.8,0.1,228,0.1L228,0.1z
	 M256.5,3c12.7,3.2,25.1,6.4,37.3,9.7c2.8,1,5.6,2.1,8.4,3.2c-17.5-4.7-35.6-9.4-54.1-14.1C250.9,2.1,253.7,2.5,256.5,3L256.5,3z"/>
</svg>
