<svg xmlns="http://www.w3.org/2000/svg" width="460" height="220" viewBox="0 0 460 220"><g><g clip-path="url(#clip-464)"><path fill="#2a2d30" d="M298.776 30.93c.396.144.827.288 1.257.431 61.088 20.797 89.546 41.602 104.098 62.399.109.143.18.287.29.43 14.371 20.797 16.565 41.602 19.475 62.398 0 .144.035.288.035.432 2.982 20.796 5.425 41.584 22.782 62.379.144.153.252.297.359.45 3.592 4.195 7.832 8.397 12.897 12.592-.007.652-.012 1.304-.025 1.956-5.52-4.475-10.075-8.942-13.914-13.415a4.456 4.456 0 0 1-.395-.433c-17.428-20.795-19.835-41.583-22.71-62.38 0-.152-.035-.296-.035-.448-2.804-20.797-4.852-41.584-18.974-62.381a2.997 2.997 0 0 0-.287-.43c-14.3-20.797-42.221-41.602-102.481-62.398-.43-.145-.826-.287-1.258-.432-28.402-9.863-64.137-19.734-103.72-29.598.499-.072 1-.139 1.498-.21 38.468 9.555 73.184 19.103 101.108 28.659zm5.067 5.713c.396.154.826.297 1.222.45 57.06 20.796 83.077 41.583 96.336 62.38.072.143.18.287.252.43 13.08 20.797 14.553 41.603 16.924 62.399.037.144.037.288.037.43 2.478 20.797 4.778 41.603 22.421 62.4.144.143.287.287.396.43 4.823 5.524 10.739 11.057 18.25 16.58-.033.633-.082 1.262-.12 1.893-8.027-5.782-14.301-11.558-19.352-17.341a3.665 3.665 0 0 1-.358-.43c-17.752-20.798-20.015-41.585-22.387-62.382 0-.143 0-.287-.037-.43-2.228-20.796-3.593-41.602-16.385-62.398-.071-.143-.18-.288-.252-.431-12.972-20.797-38.556-41.602-94.862-62.4-.396-.142-.791-.286-1.187-.43-30.546-11.382-70.851-22.77-115.7-34.154.468-.083.939-.159 1.407-.24 43.825 11.084 83.216 22.16 113.395 33.244zm4.024 5.713c.395.154.754.297 1.115.45 53.324 20.797 77.147 41.583 89.113 62.38.072.144.143.288.252.431 11.75 20.796 12.505 41.602 14.337 62.398 0 .144 0 .288.035.431 1.941 20.797 4.06 41.601 21.993 62.398a3.7 3.7 0 0 0 .359.431c5.95 6.776 13.708 13.552 23.912 20.32-.058.625-.103 1.254-.167 1.878-10.764-7.02-18.902-14.027-25.075-21.048-.144-.153-.252-.297-.396-.449-17.965-20.795-20.087-41.583-21.919-62.38v-.43c-1.724-20.797-2.335-41.602-13.833-62.398-.072-.145-.18-.288-.252-.432-11.714-20.796-35.107-41.602-87.714-62.397a34.447 34.447 0 0 0-1.113-.432c-32.116-12.848-76.581-25.703-126.161-38.553.431-.09.858-.193 1.29-.28 48.684 12.562 92.33 25.118 124.224 37.682zm2.947 5.733c.359.143.683.287 1.006.431 49.84 20.796 71.614 41.583 82.323 62.38.072.152.144.296.215.448 10.53 20.797 10.53 41.585 11.786 62.38v.432c1.402 20.796 3.343 41.602 21.489 62.397.143.153.252.297.358.45 7.111 7.981 16.732 15.947 29.932 23.926-.083.617-.171 1.233-.259 1.849-13.814-8.21-23.822-16.434-31.146-24.643-.107-.153-.25-.296-.36-.45-18.217-20.796-20.12-41.584-21.38-62.38 0-.143-.036-.287-.036-.43-1.15-20.796-1.004-41.602-11.246-62.399l-.216-.43c-10.457-20.796-31.837-41.602-80.992-62.399-.324-.144-.685-.287-1.007-.43-33.179-14.268-81.56-28.543-135.354-42.812.419-.1.836-.207 1.256-.306 53.01 13.994 100.608 27.993 133.631 41.986zm1.904 5.713l.97.43c46.533 20.798 66.442 41.585 75.927 62.38.035.153.107.298.179.45 9.272 20.797 8.481 41.584 9.164 62.38v.431c.826 20.797 2.587 41.6 20.913 62.398.108.144.252.305.395.45 8.201 9.157 19.8 18.3 36.23 27.458-.107.61-.224 1.219-.336 1.83-17.13-9.382-29.104-18.777-37.511-28.158l-.43-.43c-18.363-20.796-20.087-41.6-20.77-62.398v-.431c-.576-20.797.394-41.601-8.66-62.398-.071-.144-.108-.288-.18-.43-9.236-20.798-28.746-41.603-74.706-62.4-.322-.143-.61-.287-.933-.43-33.785-15.641-85.766-31.288-143.268-46.93.409-.111.817-.224 1.227-.332 56.815 15.376 108.097 30.756 141.79 46.13zm.898 5.713c.324.143.61.288.935.432 43.48 20.796 61.625 41.601 69.854 62.397.072.144.107.288.144.432 8.084 20.796 6.432 41.583 6.575 62.379-.035.154-.035.296-.035.45.287 20.796 1.868 41.584 20.337 62.379.144.144.252.305.396.452 9.293 10.283 22.957 20.585 42.862 30.873-.134.612-.262 1.227-.4 1.838-20.67-10.525-34.76-21.06-44.258-31.581-.145-.143-.252-.287-.396-.432-18.506-20.796-20.015-41.601-20.158-62.398v-.431c0-20.795 1.832-41.601-6.001-62.398a2.255 2.255 0 0 1-.18-.43c-8.013-20.797-25.8-41.585-68.704-62.38-.323-.153-.61-.297-.9-.45C279.712 43.68 224.333 26.709 163.622 9.74c.403-.122.806-.24 1.21-.36 60.117 16.71 114.839 33.425 148.785 50.134zm-3.089 17.14c.215.144.465.288.718.432 35.539 20.796 48.87 41.6 53.54 62.398.036.143.073.286.108.43 4.564 20.797.323 41.602-1.222 62.398-.035.143-.035.287-.035.433-1.402 20.795-.18 41.591 18.722 62.398.106.143.25.286.393.43 12.414 13.587 32.94 27.161 64.266 40.744-.208.592-.412 1.186-.625 1.775-32.08-13.79-53.09-27.58-65.723-41.37a4.23 4.23 0 0 1-.396-.448c-18.937-20.787-20.158-41.585-18.687-62.38.037-.153.037-.298.074-.45 1.615-20.796 6-41.583 1.687-62.379-.035-.144-.072-.288-.072-.432-4.454-20.796-17.463-41.601-52.533-62.397-.252-.145-.504-.288-.72-.432-33.707-20.6-94.993-41.21-164.46-61.81.409-.161.823-.311 1.232-.47 68.942 20.374 129.938 40.757 163.733 61.13zM145.934 19.54c.485.153.953.297 1.438.45 68.633 20.796 127.975 41.583 160.245 62.38.215.143.43.287.682.431 33.2 20.795 45.06 41.601 48.581 62.398.035.143.072.287.072.43 3.413 20.797-1.654 41.603-3.665 62.4-.037.143-.037.287-.037.43-1.904 20.796-.682 41.592 18.363 62.398.144.144.25.287.396.431 13.443 14.62 36.511 29.252 71.7 43.875-.236.59-.48 1.175-.72 1.762-35.94-14.829-59.547-29.659-73.173-44.488-.144-.143-.287-.287-.468-.43-19.043-20.806-20.23-41.6-18.254-62.398.037-.153.037-.296.037-.45 2.12-20.796 7.366-41.583 4.167-62.379-.035-.143-.035-.287-.072-.431-3.304-20.797-14.84-41.603-47.646-62.398-.215-.144-.467-.288-.683-.431-31.837-20.796-90.515-41.602-158.735-62.398-.467-.144-.934-.288-1.383-.431l-7.178-2.233c.395-.17.79-.342 1.186-.511l5.147 1.593zm3.576 5.714c.467.152.916.296 1.383.45 66.584 20.795 122.693 41.582 152.878 62.38.216.152.43.296.683.448 31.01 20.796 41.467 41.583 43.873 62.38 0 .144.037.288.037.431 2.3 20.796-3.558 41.6-6.036 62.398 0 .144-.037.287-.037.43-2.335 20.798-1.15 41.594 18.11 62.4l.431.43c14.412 15.633 40.2 31.28 79.173 46.916a218.97 218.97 0 0 1-.786 1.73c-39.708-15.834-66.067-31.658-80.687-47.495-.143-.144-.25-.287-.395-.431-19.296-20.806-20.517-41.603-18.11-62.4 0-.152.036-.296.036-.448 2.552-20.796 8.588-41.584 6.503-62.38 0-.144-.034-.287-.034-.43-2.193-20.797-12.325-41.603-42.978-62.398-.215-.145-.43-.288-.646-.432-29.787-20.796-85.288-41.602-151.476-62.398-.467-.144-.916-.287-1.383-.431-5.473-1.756-10.97-3.511-16.458-5.266.402-.186.8-.378 1.204-.563 4.906 1.56 9.82 3.12 14.715 4.679zm2.246 5.732l1.347.43c64.59 20.797 117.718 41.584 145.96 62.38.216.153.396.297.611.45 29.034 20.796 38.09 41.583 39.42 62.38v.448c1.256 20.797-5.391 41.585-8.23 62.382-.035.152-.035.296-.072.448-2.695 20.788-1.402 41.592 18.111 62.38a4.6 4.6 0 0 0 .396.43c15.372 16.609 44.059 33.217 86.618 49.825-.288.575-.567 1.155-.86 1.728-43.269-16.803-72.52-33.598-88.095-50.403-.143-.144-.25-.287-.396-.43-19.582-20.807-20.912-41.592-18.145-62.398.037-.144.037-.287.072-.43 2.91-20.798 9.737-41.603 8.696-62.399 0-.144-.037-.288-.037-.431-1.113-20.796-9.881-41.603-38.52-62.398-.214-.145-.431-.289-.61-.431-27.885-20.797-80.437-41.584-144.65-62.381-.43-.152-.88-.297-1.329-.449-8.13-2.687-16.35-5.373-24.529-8.058.405-.202.808-.404 1.214-.603 7.678 2.51 15.39 5.02 23.028 7.53zm.952 5.713c.431.144.844.287 1.275.43 62.686 20.797 113.1 41.585 139.475 62.381.215.152.395.296.61.448 27.13 20.797 34.857 41.584 35.144 62.38v.45c.178 20.796-7.151 41.583-10.277 62.38-.037.153-.037.296-.072.448-3.019 20.788-1.545 41.594 18.254 62.38l.43.433c16.328 17.538 48.006 35.065 93.912 52.601-.308.557-.62 1.113-.932 1.667-46.548-17.704-78.798-35.418-95.35-53.118-.144-.144-.288-.287-.431-.432-19.871-20.805-21.417-41.593-18.363-62.398.037-.144.072-.288.072-.431 3.197-20.797 10.71-41.601 10.71-62.397v-.432c-.11-20.796-7.548-41.602-34.353-62.398l-.54-.431c-26.05-20.797-75.908-41.584-138.253-62.38-.43-.153-.862-.297-1.311-.45-10.357-3.526-20.911-7.053-31.374-10.579.414-.222.832-.438 1.248-.658 10.044 3.367 20.17 6.736 30.126 10.106zm-.36 5.713c.414.144.845.287 1.276.432 60.889 20.796 108.752 41.6 133.439 62.397.178.144.358.288.539.432 25.331 20.796 31.8 41.583 31.118 62.379 0 .153 0 .297-.037.45-.755 20.796-8.767 41.601-12.11 62.397-.035.144-.071.288-.071.432-3.235 20.785-1.509 41.592 18.721 62.38.107.143.252.287.396.43 17.42 18.407 51.952 36.8 101.034 55.202-.337.554-.687 1.097-1.028 1.648-49.693-18.564-84.765-37.14-102.378-55.7l-.432-.43c-20.302-20.807-22.098-41.594-18.828-62.398.035-.143.071-.288.071-.43 3.378-20.798 11.534-41.604 12.469-62.4 0-.143.036-.287.036-.43.863-20.797-5.353-41.585-30.363-62.38-.18-.154-.36-.298-.54-.45-24.327-20.796-71.721-41.584-132.287-62.38-.414-.152-.827-.296-1.24-.449-12.181-4.267-24.708-8.534-37.074-12.801.418-.241.839-.478 1.258-.718 12.018 4.129 24.181 8.258 36.032 12.387zm-1.58 5.713c.395.144.79.288 1.203.432 59.236 20.796 104.8 41.6 127.869 62.398.143.144.323.288.502.43 23.68 20.797 28.89 41.602 27.31 62.398-.035.145-.035.288-.035.431-1.69 20.797-10.243 41.602-13.727 62.4-.037.143-.037.286-.072.43-3.343 20.786-1.295 41.593 19.368 62.38.143.144.323.288.467.432 18.514 19.21 55.854 38.407 107.806 57.617-.355.532-.708 1.067-1.067 1.596-52.485-19.359-90.389-38.705-109.147-58.064-.179-.143-.324-.286-.503-.432-20.734-20.786-22.853-41.592-19.512-62.38.036-.153.108-.296.108-.448 3.485-20.797 12.181-41.6 14.014-62.399 0-.143.037-.286.037-.43 1.76-20.797-3.235-41.584-26.628-62.381-.143-.152-.323-.296-.467-.45-22.782-20.795-67.86-41.582-126.772-62.378-.395-.144-.809-.288-1.204-.432-13.599-4.899-27.727-9.797-41.63-14.697.426-.265.848-.535 1.276-.797 13.621 4.78 27.457 9.562 40.803 14.344zm-2.803 5.714c.395.144.772.287 1.167.431 57.727 20.796 101.135 41.602 122.694 62.398l.432.43c22.171 20.798 26.231 41.603 23.786 62.4 0 .143-.035.286-.035.43-2.515 20.797-11.57 41.602-15.056 62.398 0 .144-.035.286-.072.432-3.378 20.785-.898 41.591 20.267 62.38.18.143.359.287.502.43 19.724 19.93 59.868 39.844 114.316 59.771-.38.52-.754 1.043-1.137 1.56-54.901-20.065-95.659-40.113-115.585-60.18-.18-.144-.29-.288-.433-.431-21.343-20.788-23.93-41.594-20.554-62.38.037-.146.074-.306.109-.45 3.45-20.796 12.577-41.583 15.235-62.38.037-.153.072-.296.072-.449 2.588-20.796-1.222-41.584-23.07-62.38-.178-.144-.321-.288-.466-.431-21.272-20.797-64.266-41.601-121.723-62.398-.378-.144-.773-.287-1.15-.431-14.631-5.41-29.989-10.818-45.069-16.228.438-.292.88-.579 1.32-.868 14.866 5.315 30 10.63 44.45 15.946zm-4.007 5.713l1.186.431c56.343 20.796 97.791 41.602 117.95 62.398l.432.432c20.698 20.796 23.68 41.6 20.446 62.396 0 .144 0 .29-.037.433-3.27 20.795-12.684 41.601-16.098 62.398-.035.144-.035.288-.035.43-3.306 20.788-.324 41.592 21.489 62.38.178.144.287.306.43.45 20.989 20.544 63.853 41.107 120.457 61.652-.396.498-.797.99-1.196 1.485-56.96-20.675-100.387-41.332-121.56-62.004-.144-.144-.325-.29-.468-.433-21.956-20.788-25.117-41.592-21.847-62.38.036-.143.071-.287.071-.43 3.378-20.797 12.9-41.603 16.279-62.398.035-.153.035-.296.072-.449 3.34-20.797.573-41.585-19.835-62.382-.145-.142-.289-.286-.432-.43-19.907-20.796-60.962-41.601-117.053-62.398-.377-.143-.772-.287-1.15-.431-15.294-5.79-31.511-11.582-47.43-17.372.436-.315.866-.637 1.304-.95 15.771 5.724 31.84 11.448 47.025 17.172zm-3.934 6.162c55.138 20.797 94.772 41.584 113.62 62.381l.431.431c19.368 20.797 21.309 41.6 17.464 62.399l-.107.43c-3.882 20.797-13.583 41.601-16.818 62.397 0 .143-.036.288-.036.433-3.161 20.785.504 41.591 23.069 62.379.145.144.288.305.467.45 21.884 20.787 66.442 41.59 123.646 62.38.395.142.756.286 1.186.43.393.147.791.293 1.185.438-.415.48-.839.953-1.258 1.429l-1.94-.716c-.395-.145-.754-.288-1.15-.432-57.133-20.805-101.904-41.592-123.932-62.398-.18-.143-.324-.287-.504-.43-22.709-20.788-26.519-41.594-23.428-62.38.037-.146.037-.29.072-.433 3.162-20.797 12.864-41.6 16.924-62.397 0-.144.037-.287.072-.43 3.988-20.798 2.228-41.603-16.887-62.399-.144-.144-.253-.288-.396-.432-18.613-20.796-57.907-41.6-112.83-62.397-.378-.144-.773-.288-1.15-.432-15.578-6.037-32.29-12.077-48.735-18.115.445-.346.896-.688 1.344-1.03 16.366 5.998 33.01 11.996 48.558 17.995.378.153.755.297 1.133.45zm62.326 372.465c-.504-.143-1.025-.305-1.527-.449-70.753-20.787-110.01-41.592-129.863-62.379-.144-.144-.27-.288-.431-.43-19.943-20.807-24.201-41.594-27.022-62.398-.018-.146-.054-.289-.072-.432-2.749-20.805-2.767-41.593-13.69-62.399l-.216-.43c-5.777-10.673-14.604-21.335-29.172-32.006.034-.634.08-1.263.12-1.894 15.23 10.913 24.386 21.837 30.292 32.75.09.144.161.305.233.45 10.924 20.787 10.87 41.59 13.493 62.378l.054.433c2.695 20.804 6.791 41.59 26.393 62.398.143.143.27.286.413.43 19.512 20.806 58.14 41.591 128.084 62.398.484.143.952.286 1.437.43 21.358 6.421 45.314 12.83 70.53 19.247-.458.083-.917.165-1.376.246-24.124-6.112-47.088-12.234-67.68-18.342zm-6.756-5.712c-.467-.144-.934-.306-1.402-.45-66.655-20.787-102.786-41.593-120.986-62.38-.126-.145-.252-.306-.378-.45-18.254-20.787-21.685-41.591-23.823-62.38-.018-.143-.018-.286-.036-.43-2.102-20.805-1.725-41.593-12.703-62.398-.072-.144-.144-.289-.233-.432-6.468-11.912-16.931-23.827-34.963-35.74.06-.625.116-1.25.18-1.874 18.776 12.157 29.556 24.307 36.166 36.464.09.144.162.29.234.433 10.995 20.804 10.546 41.592 12.505 62.398 0 .144.018.305.035.448 1.995 20.789 5.247 41.592 23.16 62.38.125.143.25.287.377.43 17.876 20.807 53.414 41.595 119.297 62.398.45.146.9.289 1.349.433 24.698 7.882 53.42 15.753 83.73 23.63-.43.092-.86.193-1.292.282-29.32-7.587-57.134-15.18-81.217-22.762zm-5.57-5.731c-.431-.146-.862-.288-1.294-.433-62.739-20.787-96.013-41.591-112.632-62.378-.107-.144-.233-.306-.341-.45-16.637-20.787-19.206-41.594-20.608-62.38l-.054-.432c-1.401-20.804-.629-41.591-11.624-62.398-.09-.143-.162-.287-.252-.43-7.133-13.119-19.284-26.239-41.06-39.357.085-.616.17-1.233.26-1.848 22.556 13.354 35.056 26.7 42.327 40.055.072.144.162.286.252.43 10.996 20.806 10.151 41.595 11.427 62.398v.45c1.276 20.787 3.665 41.593 19.979 62.38.126.144.251.288.36.43 16.313 20.807 49.012 41.593 111.033 62.399.43.143.845.287 1.275.43 27.411 9.299 60.52 18.585 95.462 27.877-.418.102-.835.206-1.254.306-34.067-9.017-66.321-18.028-93.256-27.05zm-4.348-5.714c-.412-.144-.808-.287-1.222-.43-59.055-20.788-89.688-41.595-104.78-62.38-.108-.146-.216-.307-.342-.451-15.074-20.786-16.745-41.592-17.427-62.38v-.449c-.701-20.787.467-41.592-10.565-62.38-.09-.143-.162-.288-.251-.432-7.767-14.287-21.695-28.583-47.49-42.871.11-.614.237-1.222.352-1.834 26.633 14.518 40.907 29.037 48.809 43.556.072.143.161.288.233.432 11.014 20.804 9.774 41.592 10.331 62.397v.45c.539 20.788 2.03 41.592 16.817 62.379l.323.433c14.787 20.785 44.917 41.592 103.254 62.378.413.144.827.306 1.24.45 29.546 10.666 66.704 21.32 105.812 31.98-.41.112-.818.223-1.228.332-38.326-10.394-74.697-20.78-103.866-31.18zm-3.198-5.713c-.377-.144-.754-.289-1.15-.432-55.606-20.805-83.796-41.593-97.432-62.399-.09-.142-.18-.286-.288-.43-13.582-20.787-14.337-41.593-14.283-62.379v-.45c.018-20.787 1.581-41.593-9.45-62.38-.072-.144-.162-.288-.234-.431-8.385-15.437-24.169-30.865-54.197-46.3.135-.613.26-1.23.4-1.84 30.894 15.663 47.092 31.327 55.575 46.99.09.143.18.287.252.431 11.032 20.805 9.397 41.593 9.217 62.398v.431c-.216 20.805.36 41.593 13.655 62.399.107.143.197.287.287.43 13.367 20.788 41.108 41.592 96.031 62.38.378.143.773.305 1.168.449 31.148 11.985 72.035 23.96 114.834 35.94-.402.122-.806.24-1.208.36-42.114-11.723-82.307-23.44-113.177-35.167zm-2.012-5.714c-.395-.143-.754-.287-1.132-.431-52.354-20.806-78.298-41.593-90.497-62.398-.09-.144-.18-.286-.27-.433-12.145-20.804-11.966-41.591-11.157-62.397 0-.143.018-.287.018-.43.736-20.789 2.677-41.593-8.355-62.38a4.9 4.9 0 0 1-.251-.432c-8.955-16.56-26.775-33.111-61.176-49.67.16-.602.323-1.202.487-1.801 35.293 16.772 53.544 33.55 62.611 50.32.09.146.144.29.234.433 11.031 20.805 9.019 41.592 8.139 62.398-.018.143-.018.286-.018.43-.935 20.788-1.312 41.594 10.546 62.38.09.146.162.305.252.45 11.93 20.786 37.478 41.592 89.186 62.38.377.145.736.305 1.096.449 32.288 13.254 76.656 26.496 122.69 39.745-.398.133-.799.258-1.198.389-45.424-13.002-89.115-25.996-121.205-39.002zm-.97-5.713l-1.024-.432c-49.319-20.804-73.196-41.592-84.012-62.399a5.073 5.073 0 0 1-.233-.43c-10.762-20.806-9.613-41.591-8.085-62.398 0-.143.018-.286.036-.43 1.437-20.788 3.719-41.585-7.33-62.381-.073-.143-.145-.288-.234-.431-9.498-17.651-29.515-35.303-68.399-52.955.185-.597.379-1.19.568-1.783 39.766 17.864 60.254 35.722 69.86 53.588.073.144.145.287.234.43 11.068 20.798 8.714 41.594 7.133 62.382l-.054.45c-1.653 20.786-3 41.59 7.492 62.378.072.144.144.306.216.45 10.546 20.787 34.029 41.593 82.736 62.379.341.144.683.29 1.006.432 32.982 14.468 80.59 28.935 129.422 43.402-.397.144-.798.278-1.196.421-48.295-14.224-95.262-28.443-128.136-42.673zm.108-5.715l-.97-.43c-46.462-20.805-68.381-41.593-77.85-62.398-.071-.143-.125-.286-.197-.432-9.415-20.804-7.295-41.592-5.067-62.398.018-.143.018-.287.036-.43 2.138-20.788 4.743-41.583-6.36-62.38-.072-.152-.144-.296-.216-.449-10.026-18.718-32.431-37.442-75.788-56.159.21-.591.41-1.186.624-1.775 44.24 18.932 67.16 37.871 77.284 56.8.072.146.162.29.252.433 11.085 20.797 8.444 41.593 6.18 62.38-.018.143-.053.306-.071.449-2.354 20.788-4.672 41.593 4.473 62.379l.216.432c9.199 20.804 30.723 41.592 76.627 62.398l.97.43c33.326 15.625 83.822 31.239 135.014 46.856-.396.157-.793.31-1.19.465-50.733-15.39-100.707-30.775-133.967-46.17zm21.793-34.296c-.234-.144-.467-.29-.683-.432-32.968-20.805-45.185-41.593-47.45-62.399-.017-.143-.053-.287-.071-.43-2.228-20.788 5.156-41.595 10.456-62.38.036-.144.072-.289.09-.432 5.229-20.795 8.265-41.601-4.168-62.398a5.39 5.39 0 0 0-.252-.431c-12.181-20.796-42.077-41.6-93.444-62.398-.36-.143-.718-.287-1.06-.43-8.212-3.357-16.93-6.716-25.97-10.074.358-.533.719-1.063 1.08-1.592 9.453 3.505 18.568 7.01 27.136 10.515.36.145.719.287 1.078.432 51.348 20.796 81.389 41.6 93.642 62.398l.27.431c12.504 20.796 9.522 41.602 4.24 62.397a3.728 3.728 0 0 1-.09.433c-5.336 20.785-12.847 41.592-10.834 62.38.018.142.018.305.036.448 2.066 20.788 13.996 41.592 46.605 62.38.252.143.486.305.72.449 31.584 20.787 88.717 41.593 148.87 62.38l.13.047c-.429.268-.856.538-1.287.803-60.051-20.706-117.254-41.393-149.044-62.097zm153.147 57.115c-.396-.144-.79-.288-1.222-.432-59.397-20.804-114.77-41.592-145.026-62.398a30.198 30.198 0 0 0-.717-.43c-31.227-20.805-42.08-41.593-43.355-62.398-.018-.144-.018-.287-.036-.433-1.24-20.785 6.81-41.59 12.325-62.38.018-.142.054-.286.09-.43 5.444-20.797 8.229-41.6-4.671-62.399l-.27-.43c-12.63-20.796-43.299-41.601-94.594-62.398-.359-.144-.718-.287-1.095-.431-9.934-4.08-20.563-8.156-31.597-12.233.38-.519.752-1.043 1.136-1.558 11.412 4.214 22.417 8.428 32.688 12.641.342.144.683.287 1.042.431 51.313 20.796 82.144 41.602 94.882 62.399.108.144.197.287.287.43 13.026 20.797 10.295 41.602 4.815 62.399-.036.142-.071.286-.125.43-5.534 20.788-13.69 41.593-12.649 62.38v.45c1.114 20.786 11.715 41.592 42.654 62.38.196.143.43.287.645.43 29.95 20.806 84.893 41.594 144.11 62.398.433.144.826.287 1.259.433l3.118 1.118c-.44.298-.888.582-1.33.877l-2.364-.846zm3.27-5.714l-1.186-.43c-58.606-20.807-111.932-41.594-140.678-62.398-.216-.144-.412-.29-.611-.432-29.663-20.805-39.275-41.592-39.652-62.398v-.431c-.323-20.787 8.283-41.592 13.924-62.38.035-.152.09-.296.125-.449 5.571-20.797 7.996-41.584-5.478-62.38a5.785 5.785 0 0 1-.288-.45c-13.188-20.796-44.755-41.583-96.121-62.38-.342-.143-.701-.287-1.043-.431-11.47-4.713-23.836-9.424-36.603-14.136.396-.495.794-.99 1.194-1.482 13.07 4.824 25.748 9.647 37.494 14.468.359.145.736.288 1.095.432 51.385 20.796 83.132 41.601 96.428 62.398.088.144.197.287.287.43 13.618 20.798 11.246 41.603 5.659 62.398-.018.144-.053.29-.09.433-5.66 20.787-14.373 41.592-14.23 62.38 0 .143-.017.304-.017.448.215 20.788 9.576 41.594 38.933 62.38.199.143.414.288.61.432 28.46 20.804 81.462 41.592 139.888 62.398.433.144.791.287 1.187.43 2.056.747 4.109 1.492 6.158 2.238-.442.32-.878.648-1.322.964-1.884-.684-3.771-1.368-5.662-2.052zm3.342-6.16c-57.924-20.789-109.452-41.595-136.78-62.383-.197-.142-.377-.287-.574-.43-28.208-20.806-36.634-41.593-36.167-62.398v-.431c.503-20.787 9.595-41.593 15.254-62.38.035-.154.072-.297.125-.45 5.588-20.797 7.563-41.583-6.612-62.38-.09-.153-.178-.295-.269-.45-13.816-20.795-46.372-41.582-97.936-62.378-.36-.153-.718-.297-1.096-.45C84.327 89.743 70.47 84.504 56.28 79.265c.414-.477.84-.945 1.258-1.417 14.436 5.333 28.562 10.668 41.576 16.001.36.144.72.288 1.06.431 51.618 20.796 84.372 41.602 98.35 62.399.089.143.197.287.306.43 14.319 20.797 12.431 41.602 6.844 62.399a3.85 3.85 0 0 1-.125.43c-5.641 20.788-14.805 41.593-15.47 62.382 0 .143-.018.287-.018.43-.629 20.804 7.564 41.592 35.502 62.398.197.144.378.287.593.431 27.058 20.806 78.227 41.594 136.08 62.397.395.144.753.29 1.149.433l8.058 2.962c-.445.348-.897.686-1.344 1.031-2.581-.949-5.168-1.896-7.755-2.843-.361-.144-.757-.306-1.187-.449zM125.596 76.69c.36.152.719.297 1.096.45 53.235 20.796 89.725 41.583 106.309 62.38.125.152.252.296.358.449 17.051 20.796 17.195 41.583 12.309 62.38l-.109.43c-4.923 20.797-14.768 41.594-17.301 62.398 0 .144-.019.287-.037.43-2.462 20.806 2.749 41.594 27.113 62.399.178.145.359.29.502.433 23.608 20.787 70.357 41.59 127.239 62.378.396.144.826.306 1.222.45 2.343.873 4.697 1.747 7.052 2.622-.436.43-.875.858-1.315 1.284-2.492-.924-4.982-1.85-7.461-2.775a36.586 36.586 0 0 1-1.15-.43c-56.92-20.789-103.92-41.592-127.706-62.38-.218-.144-.361-.305-.54-.45-24.579-20.787-29.914-41.593-27.561-62.38 0-.144.037-.288.037-.43 2.424-20.805 12.253-41.601 17.248-62.398.034-.144.071-.287.106-.431 4.96-20.797 4.995-41.602-11.839-62.398-.108-.145-.233-.288-.342-.432-16.385-20.796-52.57-41.601-105.661-62.398-.377-.143-.737-.287-1.114-.43-15.271-6.12-31.874-12.24-48.398-18.358.447-.405.902-.799 1.351-1.199 16.573 6.135 33.248 12.272 48.592 18.407zm-8.013 5.732l1.078.43c52.516 20.797 87.64 41.585 103.253 62.38.109.153.217.297.306.45 16.044 20.796 15.415 41.583 10.188 62.38-.037.152-.09.296-.127.448-5.282 20.797-15.001 41.594-16.996 62.382 0 .143-.018.287-.036.43-1.958 20.807 4.115 41.592 29.556 62.398.215.143.395.287.574.43 24.614 20.807 72.693 41.594 129.719 62.399.395.143.754.289 1.15.432 2.83 1.054 5.67 2.11 8.51 3.164-.438.399-.886.788-1.328 1.184a8246.711 8246.711 0 0 1-8.656-3.217c-.359-.144-.79-.286-1.15-.43-57.097-20.788-105.463-41.594-130.328-62.382-.145-.143-.36-.305-.504-.449-25.656-20.787-31.944-41.592-30.093-62.379-.019-.143-.019-.286-.019-.43 1.905-20.806 11.59-41.604 16.943-62.399.035-.145.072-.288.108-.431 5.282-20.797 6.072-41.602-9.756-62.398-.108-.144-.215-.287-.342-.431-15.416-20.797-50.288-41.602-102.715-62.398l-1.078-.432C101.15 77.6 85.146 71.647 69.076 65.695c.434-.425.866-.851 1.304-1.272 16.196 5.999 32.359 12 47.203 18zm90.461 69.674c-14.588-20.797-48.221-41.584-100.127-62.38-.36-.152-.719-.296-1.06-.45-13.867-5.658-28.959-11.315-44.26-16.972.423-.45.843-.901 1.27-1.347 15.478 5.728 30.774 11.457 44.823 17.187.377.145.736.288 1.096.431 51.995 20.798 85.88 41.603 100.595 62.399l.323.431c15.11 20.797 13.799 41.602 8.318 62.397a3.54 3.54 0 0 1-.09.432c-5.532 20.796-15.037 41.593-16.42 62.381 0 .143.016.286 0 .43-1.33 20.806 5.766 41.593 32.356 62.398.18.144.379.289.557.433 25.765 20.803 75.317 41.59 132.702 62.397.359.143.754.288 1.15.431l8.818 3.268c-.441.371-.878.75-1.322 1.117l-8.753-3.236c-.395-.144-.756-.305-1.186-.449-57.422-20.787-107.296-41.591-133.313-62.379-.18-.144-.377-.287-.557-.433-26.877-20.804-34.19-41.592-33.004-62.397a3.4 3.4 0 0 0 .035-.43c1.24-20.788 10.691-41.586 16.243-62.38.054-.153.089-.297.144-.45 5.479-20.796 6.934-41.601-8.033-62.398-.106-.144-.215-.287-.305-.43zM55.688 116.703c.36.153.701.296 1.042.449 51.51 20.796 80.832 41.583 92.726 62.38l.27.431c12.09 20.796 8.929 41.602 3.97 62.399-.036.143-.054.287-.09.43-5.066 20.806-11.858 41.594-8.785 62.398.017.143.053.286.09.432 3.125 20.786 16.439 41.592 50.88 62.379.252.144.486.306.738.45 32.402 20.189 89.5 40.394 148.788 60.584-.423.246-.845.494-1.27.737-59.08-20.067-116.086-40.12-148.651-60.19-.234-.144-.484-.287-.718-.43-34.855-20.788-48.474-41.594-51.834-62.38a3.778 3.778 0 0 1-.036-.45c-3.306-20.786 3.342-41.593 8.3-62.38.037-.143.073-.287.108-.431 4.887-20.797 8.05-41.602-3.97-62.399a5.514 5.514 0 0 1-.252-.43c-11.822-20.797-41-41.602-92.528-62.399a54.35 54.35 0 0 1-1.06-.43 785.05 785.05 0 0 0-19.752-7.687c.336-.55.682-1.091 1.023-1.638 7.283 2.725 14.316 5.449 21.011 8.175zm-11.534 5.713c.36.152.718.297 1.078.45 51.743 20.796 80.4 41.583 91.988 62.38.09.153.18.296.252.449 11.768 20.797 8.57 41.583 4.007 62.379-.036.144-.072.286-.09.433-4.671 20.803-10.654 41.592-6.486 62.397.036.144.054.287.09.43 4.24 20.807 19.062 41.593 55.516 62.398.252.144.486.288.738.431 33.051 19.462 89.615 38.94 147.767 58.403-.416.224-.837.44-1.255.662-57.912-19.315-114.32-38.616-147.447-57.932-.252-.145-.52-.288-.754-.432-36.85-20.787-51.978-41.592-56.452-62.38-.018-.143-.036-.305-.072-.449-4.42-20.786 1.402-41.593 5.965-62.379.018-.145.036-.289.072-.433 4.474-20.795 7.69-41.6-4.024-62.397-.072-.144-.162-.287-.234-.43-11.553-20.797-40.083-41.603-91.881-62.4-.377-.142-.737-.286-1.114-.43a701.575 701.575 0 0 0-13-5.09c.312-.563.625-1.126.942-1.687a699.304 699.304 0 0 1 14.394 5.627zm-11.57 5.732c.358.143.736.287 1.095.43 52.085 20.797 80.15 41.585 91.54 62.38.072.153.144.296.216.45 11.516 20.796 8.336 41.583 4.24 62.38l-.054.43c-4.186 20.807-9.307 41.593-3.953 62.4l.108.429c5.408 20.807 21.775 41.594 60.349 62.398.252.145.522.29.773.432 33.473 18.629 89.126 37.272 145.914 55.903-.414.208-.83.414-1.246.62-56.505-18.455-111.899-36.92-145.404-55.373-.27-.144-.54-.304-.81-.448-39.004-20.788-55.677-41.594-61.337-62.382-.036-.144-.072-.305-.108-.449-5.605-20.787-.664-41.591 3.396-62.38.036-.143.054-.286.072-.43 3.988-20.797 7.168-41.603-4.294-62.398l-.27-.432c-11.336-20.796-39.292-41.601-91.45-62.398-.359-.143-.7-.286-1.078-.43a629.71 629.71 0 0 0-5.94-2.342c.285-.567.56-1.139.849-1.702 2.505.97 4.973 1.94 7.391 2.912zm84.622 194.614c6.647 20.806 24.632 41.591 65.47 62.398.287.143.575.286.844.43 33.677 17.72 87.984 35.425 143.175 53.138-.4.188-.799.378-1.2.562-54.835-17.515-108.86-35.04-142.55-52.55-.287-.144-.574-.306-.862-.45-41.305-20.787-59.63-41.591-66.512-62.378-.054-.145-.108-.288-.144-.43-6.827-20.807-2.803-41.594.719-62.399l.054-.432c3.431-20.805 6.486-41.6-4.815-62.399-.09-.143-.162-.286-.234-.43-11.192-20.762-38.558-41.515-90.92-62.276.26-.58.534-1.151.8-1.727l.107.042 1.078.43c52.463 20.797 79.97 41.603 91.217 62.4l.27.43c11.318 20.797 8.246 41.583 4.707 62.38a3.598 3.598 0 0 0-.072.433c-3.63 20.803-7.852 41.59-1.276 62.397.054.144.108.287.144.431zM99.832 203.535c-10.599-19.756-35.434-39.502-83.312-59.257.237-.59.48-1.178.722-1.765 48.786 19.96 74.109 39.93 84.818 59.89.072.144.144.287.233.43 11.194 20.798 8.301 41.594 5.373 62.382-.018.143-.054.306-.072.449-3 20.788-6.289 41.592 1.563 62.38l.161.43c7.888 20.806 27.615 41.594 70.897 62.398.305.146.61.29.934.432 33.617 16.707 86.227 33.403 139.552 50.108-.391.168-.777.345-1.17.511-52.925-16.488-105.163-32.984-138.76-49.469-.323-.143-.61-.287-.916-.432-43.802-20.805-63.871-41.592-72.028-62.398l-.161-.43c-8.103-20.807-5.031-41.592-2.138-62.4l.053-.43c2.803-20.787 5.66-41.583-5.515-62.38-.072-.153-.162-.297-.234-.449zm166.461 118.76c.144.143.322.287.503.43 22.673 20.788 68.272 41.593 125.263 62.38.358.145.754.307 1.15.45 1.528.57 3.07 1.14 4.605 1.708-.42.447-.83.904-1.254 1.348-1.73-.642-3.463-1.283-5.184-1.925a44.132 44.132 0 0 1-1.221-.43C333.2 365.45 287.42 344.662 264.568 323.858a6.322 6.322 0 0 0-.503-.432c-23.608-20.788-28.119-41.592-25.352-62.38.019-.143.037-.286.072-.43 2.857-20.806 12.667-41.603 17.231-62.398.035-.146.072-.29.107-.432 4.528-20.797 3.702-41.602-14.194-62.398-.143-.144-.25-.287-.394-.431-17.446-20.796-55.121-41.602-109.058-62.398-.359-.144-.718-.287-1.096-.431-15.565-6.15-32.406-12.298-49.054-18.447.442-.37.876-.75 1.32-1.117 16.635 6.138 33.483 12.276 49.082 18.414.377.152.755.296 1.132.449 54.096 20.796 92.097 41.583 109.757 62.38.109.153.252.297.36.45 18.146 20.794 19.153 41.583 14.732 62.378 0 .144-.035.288-.072.433-4.49 20.795-14.3 41.601-17.211 62.398-.037.144-.037.287-.072.43-2.875 20.807 1.509 41.593 24.938 62.398zm104.314-187.392c-5.606-20.796-20.159-41.584-57.637-62.38-.252-.144-.539-.287-.79-.431-33.987-19.455-93.795-38.92-160.578-58.376.403-.147.81-.285 1.215-.429 66.186 19.217 125.654 38.44 159.686 57.655.25.144.539.288.79.431 38.018 20.796 52.893 41.602 58.716 62.398.035.143.106.287.143.431 5.678 20.797 2.3 41.602 1.294 62.399v.431c-.9 20.796.43 41.6 19.152 62.397.108.144.252.287.395.43 11.416 12.511 29.54 25.022 56.966 37.532-.183.597-.367 1.194-.554 1.79-28.19-12.722-46.814-25.453-58.424-38.171-.144-.144-.253-.306-.396-.45-18.757-20.785-20.05-41.583-19.08-62.38 0-.152.036-.296.036-.448 1.114-20.796 4.672-41.583-.79-62.38-.037-.153-.11-.296-.144-.45zm32.124 119.244c10.367 11.41 26.202 22.82 49.786 34.229-.16.608-.328 1.212-.492 1.818-24.37-11.636-40.67-23.26-51.235-34.897-.108-.143-.252-.305-.358-.449-18.65-20.797-20.052-41.601-19.62-62.398v-.432c.574-20.796 3.233-41.583-3.378-62.379a2.21 2.21 0 0 0-.143-.45c-6.793-20.795-22.926-41.583-63.027-62.38-.287-.152-.576-.296-.863-.448-34.076-18.244-91.991-36.482-155.79-54.723.403-.134.808-.263 1.212-.395 63.188 17.994 120.711 35.994 154.721 53.986.287.143.54.287.863.43 40.64 20.797 57.098 41.602 64.14 62.398.037.144.109.288.144.432 6.864 20.796 4.384 41.583 3.917 62.379v.45c-.324 20.795 1.078 41.601 19.69 62.399.144.143.29.286.433.43zM.064 224.963c11.98 9.62 19.57 19.24 24.74 28.86.072.145.161.306.233.448 10.834 20.789 11.14 41.595 14.41 62.383.017.143.035.305.053.448 3.378 20.788 8.265 41.592 29.663 62.38.162.144.306.287.467.43 21.219 20.806 63.225 41.594 137.426 62.398.523.146 1.043.29 1.564.433 17.314 4.907 36.077 9.802 55.703 14.705-.498.076-.999.138-1.498.21-18.437-4.586-36.138-9.182-52.516-13.765-.52-.144-1.025-.287-1.545-.433-75.083-20.804-117.825-41.592-139.403-62.398-.162-.144-.306-.287-.467-.43-21.776-20.807-26.824-41.592-30.328-62.398a3.617 3.617 0 0 0-.072-.431c-3.377-20.806-3.755-41.593-14.57-62.397-.073-.146-.162-.29-.234-.433-5.011-9.357-12.285-18.706-23.651-28.055.009-.65.01-1.304.025-1.955zm19.422 34.592c.09.144.161.287.233.432 10.726 20.788 11.373 41.592 15.236 62.38.036.142.054.305.09.448 4.006 20.788 9.684 41.593 32.986 62.38l.485.432c23.052 20.804 68.794 41.591 147.452 62.398l1.617.43c12.456 3.337 25.575 6.66 39.127 9.992-.529.061-1.057.124-1.587.182-12.279-3.006-24.212-6.022-35.564-9.023-.539-.144-1.078-.288-1.634-.431-79.557-20.806-126.126-41.594-149.536-62.398-.18-.144-.36-.287-.521-.433-23.698-20.804-29.52-41.592-33.67-62.397-.018-.144-.054-.288-.072-.43-3.988-20.807-4.689-41.593-15.379-62.4-.09-.143-.162-.286-.252-.43-4.19-7.931-9.952-15.846-18.385-23.778-.02-.674-.036-1.35-.05-2.026 9 8.217 15.063 16.455 19.424 24.672zm-4.672 5.713c.09.144.162.288.234.431 10.564 20.807 11.516 41.594 15.936 62.398.036.143.072.289.09.432 4.635 20.787 11.067 41.593 36.418 62.38.198.143.378.305.557.449 24.974 20.787 74.903 41.594 158.106 62.379.576.144 1.131.289 1.707.432a2083.18 2083.18 0 0 0 20.58 5.095c-.59.046-1.182.088-1.774.13a2177.086 2177.086 0 0 1-16.578-4.075 228.83 228.83 0 0 0-1.707-.431c-84.191-20.805-134.983-41.593-160.37-62.4-.18-.142-.36-.286-.539-.43a127.613 127.613 0 0 1-3.75-3.153 231.103 231.103 0 0 1-22.044-26.848c-5.884-10.797-8.853-21.594-11.325-32.396-.036-.144-.072-.287-.09-.43-4.545-20.788-5.551-41.594-16.08-62.382-.071-.143-.143-.306-.215-.449-3.293-6.324-7.553-12.633-13.315-18.956-.054-.718-.09-1.441-.137-2.16 6.261 6.665 10.831 13.316 14.296 19.984zm-4.042 5.713l.215.433c10.349 20.804 11.553 41.59 16.53 62.397l.107.43c.849 3.374 1.75 6.747 2.78 10.12-.655-1.14-1.29-2.29-1.925-3.443a254.919 254.919 0 0 1-1.483-5.545l-.108-.43c-5.067-20.788-6.343-41.592-16.637-62.38-.072-.143-.144-.306-.216-.449a88.574 88.574 0 0 0-8.23-13.197c-.1-.795-.182-1.596-.274-2.392a89.217 89.217 0 0 1 9.24 14.456zm-3.486 5.714c.072.144.144.306.216.45 8.167 16.844 10.673 33.7 14.235 50.55-.51-1.087-1.024-2.17-1.518-3.266-3.182-15.384-5.929-30.774-13.346-46.153-.072-.144-.144-.305-.216-.45a97.581 97.581 0 0 0-2.65-4.947c-.196-1.04-.392-2.081-.574-3.126a91.6 91.6 0 0 1 3.853 6.942zm1.6 16.811c1.218 3.44 2.275 6.88 3.22 10.32a228.1 228.1 0 0 1-3.22-10.32zm114.508 140.331a231.577 231.577 0 0 1-4.2-2.254c24.962 9.297 56.517 18.594 95.379 27.89a240.531 240.531 0 0 1-3.288-.234c-35.225-8.47-64.334-16.936-87.89-25.402zm115.695 25.968c-.665.026-1.33.055-1.997.076-70.757-16.679-119.897-33.358-150.457-50.037a229.444 229.444 0 0 1-3.679-2.993c30.176 17.532 80.551 35.072 154.662 52.6.482.113.977.236 1.471.354zm-134.968-37.298a226.568 226.568 0 0 1-3.526-2.349c29.49 13.272 71.427 26.543 127.626 39.814h-.413c-.671-.007-1.342-.013-2.012-.025-52.77-12.48-92.806-24.96-121.676-37.44zm89.01 34.537c-2.598-.418-5.181-.88-7.75-1.385-11.507-2.947-22.246-5.893-32.26-8.84a227.836 227.836 0 0 1-8.553-3.22c14.499 4.482 30.648 8.964 48.562 13.445zm257.966-241.776c-.108-.145-.252-.288-.36-.432-17.103-20.796-19.655-41.584-22.96-62.38-.038-.153-.038-.297-.073-.45-3.269-20.796-5.964-41.582-21.451-62.379l-.324-.43C390.26 68.4 359.719 47.593 295.255 26.797c-.467-.144-.9-.288-1.365-.43-25.553-8.29-56.287-16.586-90.072-24.876.53-.06 1.056-.125 1.586-.18 32.584 7.97 62.26 15.933 87.156 23.905.467.144.898.288 1.365.43 65.362 20.797 96.445 41.603 112.363 62.399.143.143.252.287.36.43 15.774 20.798 18.576 41.603 21.954 62.4 0 .143.037.287.072.43 3.415 20.796 6.001 41.584 22.997 62.38.109.154.252.297.36.45a94.559 94.559 0 0 0 7.831 8.284c.023.687.052 1.371.068 2.06-3.323-3.068-6.257-6.145-8.833-9.212zm4.42-5.713c-.107-.143-.253-.29-.36-.432-16.673-20.796-19.369-41.602-23.105-62.398 0-.144-.035-.288-.072-.431-3.304-18.391-6.29-36.775-18.637-55.164a230.005 230.005 0 0 1 6.368 8.82c7.744 15.07 10.3 30.143 13.06 45.212.035.144.035.288.072.431 3.845 20.797 6.504 41.585 23.106 62.38.106.152.25.296.358.449a93.082 93.082 0 0 0 2.985 3.46c.056.716.098 1.436.147 2.154-1.383-1.494-2.715-2.987-3.923-4.481zm-19.764-68.975c-1.576-7.862-3.107-15.724-5.399-23.585.61 1.08 1.223 2.157 1.816 3.247 1.686 6.395 2.962 12.792 4.266 19.188l.109.45c4.066 20.118 6.826 40.228 21.54 60.346.104.808.194 1.621.29 2.433-15.694-20.547-18.468-41.101-22.55-61.647-.037-.144-.037-.288-.072-.432zm3.413-5.282l-.107-.432-.353-1.611a228.424 228.424 0 0 1 1.583 3.478c3.473 16.41 6.312 32.82 15.482 49.227.21 1.085.428 2.166.623 3.254-10.73-17.972-13.417-35.944-17.228-53.916zM255.945 2.364c.61.143 1.15.287 1.723.43 30.887 7.555 56.462 15.11 77.6 22.663 1.446.747 2.887 1.502 4.316 2.277-21.407-7.936-47.623-15.872-79.65-23.808-.54-.144-1.15-.287-1.727-.43-3.856-.972-7.824-1.938-11.82-2.908 1.158.082 2.312.176 3.465.274 2.049.5 4.082.999 6.093 1.502zm-20.967-2.3c11.14 2.673 21.8 5.338 31.961 8.013l1.617.431c36.23 9.45 64.424 18.897 86.349 28.344 1.209.783 2.416 1.57 3.61 2.375-21.956-9.856-50.592-19.711-87.911-29.569-.54-.153-1.078-.296-1.652-.45-11.494-3.06-23.669-6.114-36.42-9.176.816.008 1.633.014 2.446.031zm41.699 13.727c.504.143 1.006.287 1.545.43 42.377 11.797 72.707 23.597 94.474 35.396 1.253.992 2.499 1.991 3.73 3.009-21.61-12.417-52.391-24.834-96.406-37.255a92.473 92.473 0 0 0-1.546-.45c-17.331-4.919-36.465-9.83-56.937-14.75.673-.025 1.344-.058 2.02-.077 19.01 4.568 36.849 9.127 53.12 13.697zm10.062 6.845C264.825 13.983 239.57 7.339 212.115.686c.603-.045 1.21-.077 1.815-.119 26.105 6.315 50.198 12.622 71.3 18.937.466.143.97.287 1.437.43 54.463 16.206 87.145 32.418 107.135 48.627 2.5 2.536 4.942 5.129 7.323 7.778-18.65-18.42-51.834-36.834-112.913-55.255-.467-.152-.971-.296-1.473-.448zM269.183 3.339c3.23.555 6.436 1.179 9.618 1.867a918.608 918.608 0 0 1 23.635 6.446 228.62 228.62 0 0 1 10.193 3.653c-13.083-3.988-27.535-7.978-43.446-11.966z"/></g></g></svg>