<svg xmlns="http://www.w3.org/2000/svg" width="460" height="300" viewBox="0 0 460 300"><g><g clip-path="url(#clip-464)"><path fill="#2a2d30" d="M298.776-129.07c.396.144.826.288 1.257.431 61.088 20.797 89.546 41.602 104.098 62.398.109.144.18.288.29.431 14.372 20.797 16.564 41.602 19.475 62.399 0 .143.035.287.035.43 2.982 20.796 5.426 41.586 22.782 62.38.143.153.252.297.359.449 3.592 4.196 7.832 8.399 12.897 12.593-.007.652-.012 1.305-.025 1.955-5.52-4.474-10.075-8.94-13.914-13.415a4.4 4.4 0 0 1-.395-.432c-17.428-20.795-19.835-41.583-22.71-62.38 0-.152-.035-.295-.035-.448-2.804-20.797-4.852-41.584-18.974-62.38a2.949 2.949 0 0 0-.287-.432c-14.3-20.795-42.221-41.601-102.481-62.398-.43-.143-.826-.286-1.258-.43-28.402-9.864-64.137-19.734-103.72-29.599.499-.073 1-.139 1.498-.209 38.468 9.554 73.184 19.102 101.108 28.657zm5.067 5.714c.396.152.826.296 1.222.45 57.06 20.795 83.077 41.582 96.336 62.38.072.142.18.286.252.43 13.08 20.797 14.553 41.601 16.924 62.398.037.144.037.288.037.431 2.478 20.797 4.778 41.602 22.421 62.4.144.142.287.286.396.43 4.823 5.524 10.739 11.056 18.25 16.58-.033.632-.082 1.26-.12 1.892-8.027-5.782-14.301-11.558-19.352-17.341a3.699 3.699 0 0 1-.358-.43c-17.752-20.798-20.015-41.585-22.387-62.381 0-.144 0-.287-.037-.431-2.228-20.796-3.593-41.602-16.385-62.398-.071-.144-.18-.288-.252-.432-12.972-20.796-38.556-41.6-94.862-62.398l-1.187-.43c-30.546-11.383-70.85-22.771-115.7-34.155.468-.083.939-.158 1.407-.24 43.825 11.083 83.216 22.16 113.395 33.245zm4.024 5.713c.395.153.754.296 1.115.45 53.324 20.796 77.147 41.582 89.113 62.379.072.143.144.288.252.43 11.75 20.798 12.505 41.602 14.337 62.4 0 .143 0 .287.035.43 1.941 20.797 4.06 41.602 21.993 62.399.107.143.215.287.359.43 5.95 6.777 13.708 13.552 23.912 20.32-.058.625-.103 1.254-.167 1.878-10.764-7.02-18.902-14.027-25.075-21.048-.144-.153-.252-.297-.396-.449-17.965-20.795-20.087-41.583-21.919-62.38v-.43c-1.724-20.797-2.335-41.602-13.833-62.399-.072-.144-.18-.288-.252-.431-11.714-20.796-35.107-41.602-87.714-62.397-.358-.144-.717-.289-1.113-.433-32.116-12.847-76.581-25.702-126.161-38.552.431-.09.858-.192 1.29-.28 48.683 12.562 92.33 25.119 124.224 37.683zm2.947 5.731c.359.145.683.287 1.006.431 49.84 20.797 71.614 41.584 82.323 62.38.072.154.144.297.215.45 10.53 20.796 10.53 41.583 11.786 62.38v.431c1.402 20.796 3.343 41.602 21.489 62.396.143.154.252.299.358.452 7.111 7.98 16.732 15.946 29.932 23.924-.083.618-.171 1.234-.259 1.85-13.814-8.21-23.822-16.435-31.146-24.643-.107-.152-.25-.296-.359-.449-18.218-20.797-20.122-41.585-21.38-62.38 0-.144-.037-.288-.037-.431-1.15-20.796-1.004-41.602-11.247-62.399l-.215-.43c-10.457-20.797-31.837-41.602-80.992-62.398-.324-.144-.685-.288-1.007-.432-33.179-14.268-81.56-28.541-135.354-42.81.419-.102.836-.208 1.256-.307 53.01 13.994 100.608 27.992 133.631 41.985zm1.904 5.714l.97.431c46.533 20.796 66.442 41.583 75.927 62.38.035.153.107.296.179.45 9.272 20.796 8.481 41.582 9.164 62.38v.43c.826 20.797 2.587 41.601 20.913 62.398.108.144.252.306.395.449 8.202 9.158 19.8 18.302 36.23 27.458-.107.611-.224 1.22-.336 1.83-17.13-9.38-29.104-18.777-37.511-28.156l-.43-.431c-18.363-20.797-20.087-41.6-20.77-62.399v-.43c-.576-20.797.394-41.602-8.66-62.398-.071-.144-.108-.287-.18-.432-9.236-20.796-28.746-41.6-74.706-62.398-.322-.143-.61-.286-.933-.43-33.785-15.64-85.766-31.288-143.268-46.93.409-.112.817-.224 1.227-.332 56.815 15.376 108.097 30.755 141.79 46.13zm.898 5.713c.324.143.61.287.935.432 43.48 20.796 61.625 41.601 69.854 62.397.072.144.107.288.144.432 8.084 20.796 6.432 41.583 6.575 62.38-.035.152-.035.296-.035.449.287 20.796 1.867 41.584 20.337 62.379.144.145.252.305.396.451 9.293 10.285 22.957 20.587 42.862 30.874-.134.612-.262 1.227-.4 1.837-20.67-10.523-34.76-21.06-44.258-31.58-.145-.144-.252-.287-.396-.432-18.506-20.796-20.015-41.602-20.158-62.398v-.43c0-20.796 1.832-41.602-6.001-62.398-.072-.145-.144-.289-.18-.432-8.013-20.796-25.8-41.584-68.704-62.38-.323-.152-.61-.296-.9-.449-33.976-16.966-89.355-33.938-150.066-50.906.403-.121.806-.241 1.21-.36 60.117 16.71 114.839 33.425 148.785 50.134zm-3.089 17.14c.215.143.466.287.718.432 35.539 20.796 48.87 41.601 53.54 62.398l.108.43c4.564 20.797.323 41.602-1.222 62.398-.035.144-.035.288-.035.432-1.402 20.795-.18 41.592 18.722 62.398.106.144.25.287.393.43 12.414 13.588 32.94 27.162 64.266 40.746-.208.591-.412 1.185-.625 1.774-32.08-13.79-53.09-27.58-65.723-41.37a3.986 3.986 0 0 1-.396-.449c-18.937-20.788-20.158-41.584-18.687-62.379.037-.152.037-.298.074-.45 1.615-20.796 6-41.583 1.687-62.38-.035-.143-.072-.287-.072-.43-4.454-20.796-17.463-41.603-52.533-62.399-.252-.143-.504-.286-.719-.43-33.708-20.602-94.994-41.21-164.461-61.81.409-.162.822-.313 1.232-.471 68.942 20.374 129.938 40.757 163.733 61.13zM145.934-140.46c.486.153.953.297 1.438.45 68.633 20.796 127.975 41.583 160.245 62.38.215.143.43.287.682.43 33.2 20.798 45.06 41.602 48.581 62.399.035.143.072.287.072.43 3.413 20.797-1.654 41.603-3.665 62.4-.037.143-.037.286-.037.43-1.904 20.796-.682 41.592 18.363 62.398.144.144.25.287.396.43 13.442 14.62 36.511 29.253 71.7 43.876-.236.59-.48 1.175-.72 1.761-35.94-14.827-59.547-29.657-73.173-44.486-.144-.144-.287-.288-.468-.431-19.043-20.806-20.23-41.6-18.254-62.398.037-.152.037-.296.037-.449 2.12-20.797 7.366-41.584 4.167-62.38-.035-.144-.035-.287-.072-.432-3.304-20.796-14.84-41.6-47.646-62.397-.216-.144-.468-.287-.683-.432-31.837-20.796-90.515-41.601-158.735-62.397-.467-.145-.934-.288-1.383-.432l-7.178-2.233c.395-.169.79-.342 1.186-.51l5.147 1.593zm3.576 5.714c.467.153.916.296 1.383.45 66.584 20.795 122.693 41.582 152.878 62.379.216.153.43.296.683.45 31.01 20.795 41.467 41.583 43.873 62.379 0 .143.037.288.037.43 2.3 20.798-3.558 41.602-6.036 62.4 0 .143-.037.286-.037.43-2.335 20.796-1.15 41.594 18.11 62.399l.431.43c14.412 15.634 40.2 31.28 79.173 46.916-.259.578-.522 1.153-.785 1.73-39.71-15.834-66.068-31.658-80.688-47.495-.143-.144-.25-.287-.395-.43-19.296-20.807-20.517-41.605-18.11-62.401 0-.153.036-.295.036-.449 2.552-20.794 8.588-41.583 6.503-62.38 0-.143-.035-.286-.035-.43-2.192-20.796-12.324-41.602-42.977-62.398l-.645-.431c-29.788-20.796-85.289-41.602-151.477-62.398-.467-.144-.916-.288-1.383-.431-5.473-1.756-10.971-3.511-16.458-5.266.402-.186.8-.379 1.205-.562 4.905 1.559 9.82 3.118 14.714 4.678zm2.246 5.73l1.347.433c64.59 20.795 117.718 41.582 145.96 62.38.216.152.396.296.611.448 29.034 20.797 38.09 41.584 39.42 62.38v.45c1.256 20.796-5.391 41.583-8.23 62.38-.035.153-.035.297-.072.449-2.695 20.787-1.402 41.592 18.11 62.38.11.143.253.287.397.43 15.372 16.608 44.059 33.216 86.618 49.825-.288.575-.567 1.155-.86 1.728-43.269-16.803-72.52-33.596-88.095-50.402-.143-.144-.25-.288-.396-.432-19.582-20.805-20.912-41.591-18.145-62.397.037-.143.037-.287.071-.43 2.911-20.797 9.738-41.603 8.697-62.4 0-.144-.037-.286-.037-.43-1.113-20.797-9.881-41.602-38.519-62.398-.215-.145-.432-.288-.61-.432-27.886-20.796-80.438-41.584-144.65-62.38-.432-.153-.88-.296-1.33-.45-8.13-2.686-16.35-5.372-24.529-8.058.405-.2.808-.403 1.214-.602 7.678 2.51 15.39 5.019 23.028 7.529zm.952 5.715c.431.144.844.287 1.275.431 62.686 20.796 113.1 41.584 139.475 62.38.215.153.395.296.61.45 27.13 20.795 34.857 41.583 35.144 62.379v.45c.178 20.795-7.151 41.583-10.277 62.379-.037.152-.037.296-.072.449-3.019 20.788-1.545 41.593 18.254 62.38l.43.431c16.328 17.54 48.007 35.067 93.912 52.603-.308.557-.62 1.112-.932 1.666-46.548-17.704-78.798-35.418-95.35-53.119a78.314 78.314 0 0 1-.431-.431c-19.872-20.805-21.417-41.593-18.363-62.399.037-.143.072-.287.072-.43 3.197-20.797 10.71-41.602 10.71-62.398v-.432c-.11-20.795-7.548-41.601-34.353-62.397l-.54-.431c-26.05-20.796-75.908-41.584-138.253-62.38-.43-.154-.862-.297-1.311-.45-10.357-3.526-20.91-7.053-31.374-10.578.414-.223.832-.44 1.248-.659 10.044 3.369 20.17 6.737 30.126 10.106zm-.36 5.713c.414.144.845.288 1.276.431C214.513-96.36 262.376-75.556 287.063-54.76c.178.144.358.289.539.432 25.332 20.796 31.8 41.584 31.118 62.38 0 .153 0 .297-.037.45-.754 20.796-8.767 41.602-12.11 62.397-.035.143-.071.288-.071.433-3.235 20.785-1.509 41.591 18.721 62.378.107.144.252.287.396.431 17.42 18.407 51.952 36.8 101.034 55.202-.337.554-.687 1.097-1.028 1.647-49.693-18.563-84.765-37.138-102.378-55.698a78.223 78.223 0 0 1-.432-.432c-20.302-20.806-22.098-41.594-18.828-62.397.035-.144.071-.287.071-.43 3.378-20.797 11.534-41.604 12.469-62.4 0-.144.036-.287.036-.432.863-20.795-5.353-41.583-30.363-62.379-.18-.153-.36-.297-.54-.449-24.327-20.796-71.721-41.584-132.287-62.38-.414-.153-.827-.296-1.24-.45-12.181-4.266-24.708-8.533-37.074-12.8.418-.241.839-.479 1.259-.718 12.017 4.129 24.18 8.257 36.03 12.387zm-1.58 5.713c.395.144.79.288 1.203.432 59.236 20.796 104.8 41.601 127.869 62.397.143.144.323.288.502.432 23.68 20.796 28.89 41.602 27.31 62.398-.035.144-.035.287-.035.431-1.69 20.795-10.242 41.602-13.727 62.398-.037.143-.037.287-.072.43-3.343 20.789-1.295 41.594 19.368 62.38.143.146.323.29.467.433 18.514 19.21 55.854 38.407 107.806 57.616-.355.533-.708 1.067-1.067 1.597-52.485-19.36-90.389-38.704-109.147-58.064-.179-.143-.324-.287-.503-.432-20.734-20.786-22.853-41.592-19.512-62.38.036-.152.108-.296.108-.449 3.485-20.796 12.181-41.6 14.014-62.397 0-.144.037-.288.037-.432 1.76-20.795-3.235-41.584-26.627-62.38-.144-.152-.324-.296-.468-.449-22.782-20.795-67.86-41.584-126.772-62.38-.395-.144-.808-.287-1.204-.431-13.599-4.898-27.727-9.798-41.63-14.698.426-.264.848-.534 1.276-.796 13.621 4.78 27.457 9.562 40.803 14.344zm-2.803 5.714c.395.144.772.287 1.167.431 57.727 20.796 101.135 41.602 122.693 62.397l.433.432c22.171 20.797 26.231 41.602 23.786 62.398 0 .144-.035.288-.035.431-2.515 20.796-11.57 41.603-15.056 62.398 0 .143-.035.287-.072.432-3.378 20.786-.898 41.592 20.267 62.38.18.143.359.286.502.43 19.725 19.93 59.868 39.844 114.316 59.771-.38.52-.754 1.043-1.137 1.56-54.901-20.064-95.659-40.114-115.585-60.18-.18-.144-.29-.287-.433-.432-21.343-20.787-23.93-41.593-20.554-62.38.037-.144.074-.304.109-.45 3.45-20.795 12.577-41.582 15.235-62.379.037-.153.072-.296.072-.45 2.588-20.796-1.222-41.583-23.07-62.38-.178-.143-.321-.286-.466-.43-21.272-20.798-64.266-41.603-121.723-62.398-.378-.144-.773-.287-1.15-.432-14.631-5.409-29.989-10.818-45.069-16.227.438-.293.88-.579 1.32-.868 14.866 5.315 30 10.63 44.45 15.946zm-4.007 5.713l1.186.431c56.343 20.796 97.792 41.602 117.95 62.398.143.143.289.287.432.432 20.698 20.796 23.68 41.601 20.446 62.397 0 .143 0 .289-.037.432-3.27 20.795-12.683 41.602-16.098 62.398-.035.143-.035.287-.035.43-3.306 20.788-.324 41.592 21.489 62.38.178.143.286.305.43.45 20.989 20.544 63.853 41.106 120.457 61.652-.396.498-.797.99-1.196 1.485-56.96-20.675-100.387-41.332-121.56-62.006-.144-.142-.325-.287-.468-.431-21.956-20.788-25.117-41.592-21.847-62.379.036-.144.071-.288.071-.431 3.378-20.797 12.901-41.603 16.279-62.398.035-.153.035-.296.072-.45 3.34-20.796.574-41.584-19.835-62.38l-.433-.431c-19.906-20.796-60.96-41.602-117.051-62.398-.378-.143-.773-.287-1.15-.431-15.295-5.79-31.512-11.581-47.432-17.372.437-.314.867-.637 1.305-.949 15.772 5.723 31.84 11.447 47.025 17.171zm-3.935 6.162c55.139 20.796 94.773 41.584 113.622 62.38l.43.432c19.368 20.796 21.309 41.602 17.463 62.398-.034.144-.071.287-.106.43-3.882 20.797-13.583 41.602-16.818 62.398 0 .144-.036.288-.036.433-3.161 20.785.504 41.592 23.069 62.38.145.143.288.305.467.448 21.884 20.788 66.442 41.592 123.646 62.38.395.143.756.286 1.186.432.393.146.791.292 1.185.437-.415.48-.839.953-1.258 1.43l-1.94-.717c-.395-.145-.754-.288-1.15-.432-57.133-20.804-101.904-41.592-123.932-62.398-.18-.144-.324-.287-.504-.43-22.709-20.788-26.519-41.595-23.428-62.38.037-.145.037-.29.072-.432 3.162-20.798 12.864-41.601 16.924-62.399 0-.143.037-.287.072-.43 3.988-20.797 2.228-41.603-16.888-62.398-.143-.144-.252-.287-.395-.432-18.613-20.796-57.907-41.601-112.83-62.397-.378-.144-.773-.288-1.15-.432-15.578-6.038-32.29-12.077-48.735-18.116.445-.346.895-.686 1.344-1.03 16.366 6 33.01 11.997 48.558 17.996.378.154.755.297 1.132.449zm62.327 372.465c-.504-.144-1.025-.305-1.527-.449-70.753-20.787-110.01-41.591-129.863-62.38-.144-.143-.27-.286-.431-.43-19.943-20.806-24.201-41.594-27.022-62.397-.018-.146-.054-.29-.072-.433-2.749-20.804-2.767-41.592-13.69-62.397l-.216-.431C23.752 78.589 14.925 67.927.357 57.254c.034-.631.08-1.262.12-1.894 15.23 10.914 24.386 21.838 30.292 32.75.09.144.161.307.233.45 10.924 20.787 10.87 41.592 13.493 62.38l.054.432c2.695 20.803 6.791 41.592 26.393 62.397.144.145.27.287.413.431 19.512 20.806 58.14 41.593 128.084 62.398.484.144.952.287 1.437.43 21.358 6.421 45.314 12.83 70.53 19.247-.459.084-.917.165-1.377.246-24.123-6.112-47.087-12.233-67.679-18.343zm-6.756-5.713c-.467-.143-.934-.305-1.402-.448-66.655-20.788-102.786-41.594-120.986-62.382-.126-.143-.252-.305-.378-.45-18.254-20.786-21.685-41.59-23.823-62.378-.018-.144-.018-.286-.036-.43-2.102-20.806-1.725-41.594-12.703-62.398-.071-.144-.143-.29-.233-.432-6.468-11.913-16.931-23.828-34.963-35.74.06-.625.116-1.25.18-1.875 18.776 12.157 29.556 24.307 36.166 36.464.09.144.162.29.234.433 10.995 20.804 10.546 41.591 12.505 62.398 0 .143.018.305.035.449 1.995 20.787 5.247 41.591 23.16 62.379.125.144.25.287.377.43 17.876 20.807 53.414 41.594 119.297 62.398.449.147.9.29 1.349.433 24.698 7.881 53.42 15.752 83.73 23.63-.43.092-.86.192-1.292.282-29.32-7.586-57.134-15.181-81.217-22.763zm-5.57-5.73c-.431-.145-.862-.289-1.294-.432-62.738-20.788-96.013-41.592-112.632-62.38-.107-.144-.233-.305-.341-.448-16.637-20.788-19.206-41.595-20.608-62.38l-.054-.433c-1.401-20.804-.629-41.592-11.624-62.398-.09-.144-.162-.286-.252-.43-7.133-13.119-19.284-26.238-41.06-39.357.085-.617.17-1.234.26-1.849 22.556 13.354 35.056 26.7 42.328 40.056.071.144.161.287.251.43 10.996 20.806 10.151 41.594 11.427 62.399v.448c1.276 20.788 3.665 41.594 19.979 62.381.125.144.251.288.36.431 16.313 20.805 49.012 41.592 111.033 62.398l1.275.43c27.411 9.298 60.52 18.584 95.462 27.877-.418.101-.835.206-1.254.306-34.067-9.017-66.321-18.028-93.257-27.049zm-4.348-5.714c-.412-.144-.808-.288-1.221-.431-59.056-20.788-89.69-41.594-104.781-62.38-.108-.145-.216-.307-.342-.45-15.074-20.786-16.745-41.592-17.427-62.38v-.45c-.701-20.786.467-41.59-10.565-62.379-.09-.142-.161-.289-.251-.432-7.767-14.287-21.695-28.583-47.49-42.871.11-.614.237-1.222.352-1.834C30.584 41.932 44.858 56.452 52.76 70.969c.072.144.161.289.233.433 11.014 20.804 9.774 41.592 10.331 62.398v.45c.54 20.787 2.03 41.59 16.817 62.379l.323.431c14.787 20.787 44.917 41.593 103.254 62.38.413.144.827.306 1.24.448 29.546 10.667 66.704 21.32 105.812 31.981-.41.112-.818.222-1.228.332-38.326-10.395-74.697-20.78-103.866-31.18zm-3.198-5.713c-.377-.144-.754-.289-1.15-.433-55.606-20.804-83.796-41.592-97.432-62.397-.09-.144-.18-.287-.288-.43-13.582-20.788-14.337-41.594-14.283-62.38v-.449c.018-20.787 1.58-41.594-9.45-62.381-.072-.144-.162-.287-.234-.432-8.385-15.436-24.169-30.865-54.197-46.3.135-.612.26-1.228.4-1.838C36.738 33.93 52.936 49.594 61.42 65.258c.09.143.18.286.251.43 11.032 20.806 9.397 41.594 9.217 62.398v.432c-.216 20.804.36 41.591 13.655 62.397.107.144.197.288.287.43 13.367 20.789 41.108 41.593 96.031 62.38.378.143.773.306 1.168.45 31.148 11.985 72.035 23.96 114.834 35.94-.402.123-.806.24-1.208.36-42.114-11.723-82.307-23.44-113.177-35.167zm-2.012-5.714c-.395-.143-.754-.287-1.132-.43-52.354-20.807-78.298-41.594-90.497-62.399-.09-.143-.18-.286-.27-.432-12.145-20.804-11.966-41.592-11.157-62.398 0-.143.018-.287.018-.43.736-20.789 2.677-41.593-8.355-62.38-.09-.144-.18-.287-.251-.432-8.955-16.56-26.775-33.111-61.176-49.67.16-.602.323-1.201.487-1.801 35.293 16.771 53.544 33.55 62.611 50.32.09.146.144.29.234.433 11.031 20.805 9.019 41.592 8.139 62.398-.018.143-.018.287-.018.43-.935 20.788-1.312 41.594 10.546 62.38.09.145.162.306.252.45 11.93 20.787 37.478 41.592 89.186 62.38.377.144.736.305 1.096.45 32.288 13.252 76.656 26.495 122.69 39.744-.398.133-.799.259-1.198.389-45.424-13-89.115-25.997-121.205-39.002zm-.97-5.713c-.341-.143-.683-.288-1.024-.433-49.319-20.804-73.196-41.592-84.012-62.397a4.94 4.94 0 0 1-.233-.43c-10.762-20.806-9.613-41.592-8.086-62.399 0-.143.018-.287.037-.43 1.437-20.787 3.719-41.584-7.33-62.382-.073-.143-.145-.286-.235-.43C69.116 37.329 49.1 19.677 10.215 2.026c.185-.597.379-1.189.568-1.784 39.766 17.864 60.254 35.723 69.86 53.588.073.144.144.287.234.43 11.068 20.798 8.714 41.594 7.133 62.382l-.054.45c-1.653 20.787-3 41.59 7.492 62.378.072.144.144.305.216.45 10.546 20.787 34.029 41.593 82.736 62.379.341.143.683.289 1.006.432 32.982 14.467 80.589 28.935 129.422 43.402-.397.144-.798.279-1.195.42-48.295-14.223-95.263-28.442-128.137-42.672zm.108-5.714l-.97-.43c-46.462-20.807-68.381-41.595-77.85-62.399-.071-.143-.125-.286-.197-.432-9.415-20.804-7.295-41.592-5.067-62.397.018-.144.018-.288.036-.432 2.138-20.787 4.743-41.582-6.36-62.379-.072-.152-.144-.296-.216-.449C78.954 30.531 56.55 11.807 13.192-6.91c.21-.59.41-1.185.624-1.774 44.24 18.933 67.16 37.871 77.284 56.8.072.146.162.29.252.433 11.085 20.797 8.444 41.592 6.18 62.38-.018.143-.053.306-.071.449-2.354 20.787-4.672 41.594 4.473 62.38l.216.431c9.199 20.805 30.723 41.592 76.627 62.398.324.144.647.288.97.43 33.326 15.624 83.822 31.239 135.014 46.856-.396.157-.793.31-1.19.465-50.733-15.39-100.707-30.776-133.967-46.17zm21.793-34.297c-.234-.144-.467-.29-.683-.433-32.968-20.804-45.185-41.592-47.45-62.398-.017-.143-.053-.286-.071-.43-2.228-20.787 5.156-41.593 10.456-62.38a3.67 3.67 0 0 0 .09-.432c5.228-20.794 8.265-41.6-4.168-62.397a5.264 5.264 0 0 0-.252-.431C147.14-5.828 117.242-26.633 65.875-47.43c-.36-.143-.718-.287-1.06-.43-8.212-3.357-16.93-6.716-25.97-10.074.358-.533.719-1.062 1.08-1.592 9.453 3.505 18.568 7.01 27.136 10.515l1.078.431c51.348 20.797 81.389 41.603 93.642 62.398l.27.432c12.504 20.796 9.522 41.602 4.24 62.397a3.73 3.73 0 0 1-.09.433c-5.336 20.785-12.847 41.59-10.834 62.38.018.142.018.305.036.447 2.066 20.788 13.996 41.593 46.605 62.38.252.144.485.306.72.448 31.584 20.788 88.717 41.595 148.87 62.383l.13.045c-.429.268-.856.538-1.287.803-60.051-20.705-117.254-41.392-149.044-62.096zm153.147 57.116c-.396-.146-.79-.289-1.222-.433-59.397-20.804-114.77-41.592-145.026-62.398a25.334 25.334 0 0 0-.717-.43c-31.227-20.807-42.079-41.594-43.355-62.398-.018-.143-.018-.287-.036-.432-1.24-20.787 6.81-41.593 12.325-62.38.018-.144.054-.287.09-.43 5.444-20.798 8.229-41.601-4.671-62.398l-.27-.432c-12.63-20.796-43.299-41.602-94.594-62.398-.359-.143-.718-.287-1.096-.431-9.933-4.079-20.562-8.157-31.596-12.234.38-.517.752-1.042 1.136-1.557C56.924-63.151 67.93-58.938 78.2-54.724c.342.144.683.287 1.042.431 51.313 20.796 82.144 41.602 94.882 62.398.108.144.197.287.287.431 13.026 20.798 10.296 41.601 4.815 62.4a3.862 3.862 0 0 1-.125.43c-5.534 20.786-13.69 41.593-12.649 62.378v.452c1.114 20.785 11.714 41.59 42.654 62.379.197.143.43.287.645.43 29.95 20.807 84.893 41.594 144.11 62.398.433.144.826.288 1.259.433l3.118 1.119c-.44.296-.888.583-1.33.876l-2.364-.845zm3.27-5.715l-1.186-.43c-58.606-20.806-111.932-41.594-140.678-62.399-.216-.143-.412-.288-.611-.432-29.663-20.804-39.275-41.592-39.652-62.397v-.431c-.323-20.788 8.283-41.592 13.924-62.38.035-.152.09-.296.125-.449 5.571-20.797 7.996-41.584-5.478-62.38a5.756 5.756 0 0 1-.288-.45c-13.188-20.795-44.755-41.584-96.122-62.38-.341-.142-.7-.287-1.042-.43C75.336-64 62.971-68.713 50.203-73.424c.396-.496.794-.99 1.194-1.482 13.07 4.823 25.748 9.647 37.493 14.467.36.144.737.288 1.096.432 51.385 20.796 83.132 41.601 96.428 62.397.088.145.197.288.287.432 13.618 20.796 11.246 41.602 5.659 62.397-.018.144-.053.29-.09.433-5.66 20.787-14.373 41.591-14.23 62.38 0 .143-.017.304-.017.448.215 20.788 9.576 41.594 38.933 62.38.199.143.414.288.61.432 28.46 20.804 81.462 41.592 139.888 62.397.433.145.791.288 1.187.432l6.158 2.237c-.442.32-.878.648-1.322.964-1.884-.684-3.771-1.368-5.662-2.052zm3.342-6.162c-57.924-20.787-109.452-41.593-136.78-62.38-.197-.144-.377-.287-.574-.431-28.208-20.806-36.634-41.594-36.167-62.398v-.43c.503-20.789 9.595-41.594 15.254-62.382.035-.152.072-.297.125-.449 5.588-20.796 7.563-41.582-6.612-62.38l-.269-.449c-13.816-20.796-46.372-41.583-97.936-62.38-.36-.152-.718-.296-1.096-.449C84.327-70.257 70.47-75.496 56.28-80.735c.414-.476.84-.944 1.258-1.418 14.436 5.335 28.562 10.67 41.576 16.002.36.144.719.288 1.06.432 51.618 20.796 84.372 41.6 98.35 62.397.089.144.197.288.306.432 14.319 20.796 12.431 41.6 6.844 62.398a3.787 3.787 0 0 1-.125.43c-5.641 20.788-14.805 41.593-15.47 62.382 0 .142-.018.286-.018.43-.629 20.804 7.564 41.592 35.502 62.398.197.143.378.287.593.43 27.058 20.806 78.227 41.594 136.079 62.4.396.142.754.287 1.15.43 2.688.989 5.375 1.976 8.058 2.964-.445.347-.897.685-1.344 1.03-2.581-.948-5.168-1.896-7.755-2.843-.361-.143-.757-.306-1.187-.45zM125.596-83.309c.36.152.719.297 1.096.45 53.235 20.795 89.725 41.583 106.309 62.379.125.152.252.296.358.449C250.41.765 250.554 21.553 245.668 42.35l-.109.43c-4.923 20.797-14.768 41.594-17.301 62.398 0 .144-.019.287-.037.43-2.462 20.806 2.748 41.594 27.113 62.399.178.145.359.289.502.432 23.608 20.788 70.357 41.592 127.24 62.38.395.143.825.304 1.22.449 2.344.873 4.698 1.747 7.054 2.621-.437.43-.876.859-1.316 1.286a4725.25 4725.25 0 0 1-7.461-2.776 35.49 35.49 0 0 1-1.15-.431c-56.92-20.787-103.92-41.592-127.706-62.379-.218-.144-.361-.306-.54-.449-24.579-20.788-29.914-41.593-27.561-62.382 0-.144.037-.286.037-.43 2.424-20.804 12.253-41.601 17.247-62.398l.107-.43c4.96-20.797 4.995-41.603-11.839-62.398-.108-.144-.233-.288-.342-.432-16.385-20.796-52.57-41.602-105.661-62.398-.377-.144-.737-.287-1.114-.431-15.271-6.119-31.874-12.239-48.397-18.358.446-.404.901-.797 1.35-1.198 16.573 6.136 33.248 12.271 48.592 18.406zm-8.013 5.732l1.078.431c52.516 20.796 87.64 41.583 103.253 62.38.109.152.217.296.306.449 16.044 20.796 15.415 41.582 10.188 62.38-.037.152-.09.296-.127.449-5.282 20.796-15.001 41.593-16.995 62.38 0 .144-.019.288-.037.432-1.958 20.805 4.115 41.59 29.556 62.398.215.142.395.286.574.43 24.614 20.805 72.693 41.593 129.719 62.398.395.143.754.288 1.15.432 2.83 1.054 5.67 2.11 8.51 3.164-.438.4-.886.788-1.328 1.184a9618.223 9618.223 0 0 1-8.656-3.217c-.359-.143-.79-.286-1.15-.43-57.097-20.788-105.463-41.593-130.328-62.381-.145-.144-.36-.306-.504-.45-25.656-20.787-31.944-41.591-30.093-62.378-.019-.144-.019-.288-.019-.431 1.904-20.806 11.59-41.604 16.943-62.399.035-.144.072-.289.108-.431 5.282-20.797 6.072-41.602-9.756-62.398-.108-.144-.215-.288-.342-.431-15.416-20.796-50.288-41.602-102.715-62.399l-1.078-.43c-14.69-5.955-30.694-11.908-46.764-17.86.434-.425.866-.851 1.304-1.273 16.196 6 32.359 12 47.203 18zm90.461 69.674c-14.587-20.796-48.221-41.585-100.127-62.38-.36-.153-.718-.297-1.06-.45-13.867-5.658-28.959-11.315-44.26-16.972.423-.45.843-.901 1.27-1.347 15.478 5.729 30.774 11.457 44.823 17.188.377.144.736.287 1.096.431 51.995 20.797 85.88 41.601 100.595 62.397l.323.432c15.11 20.796 13.799 41.602 8.318 62.397-.018.146-.053.29-.09.432-5.532 20.796-15.037 41.593-16.42 62.38 0 .144.016.287 0 .43-1.33 20.807 5.766 41.595 32.356 62.399.18.146.38.289.558.432 25.764 20.804 75.316 41.592 132.7 62.397.36.145.755.288 1.15.432l8.82 3.267c-.442.372-.879.749-1.323 1.117l-8.753-3.234c-.395-.144-.756-.307-1.186-.45-57.422-20.787-107.296-41.592-133.313-62.38-.18-.143-.377-.286-.557-.431-26.877-20.804-34.19-41.592-33.004-62.398.018-.143.035-.287.035-.43 1.24-20.788 10.691-41.585 16.244-62.381.053-.152.088-.296.143-.449 5.479-20.796 6.934-41.602-8.032-62.398-.107-.144-.216-.287-.306-.431zM55.688-43.297c.36.153.701.297 1.042.448 51.51 20.797 80.832 41.585 92.726 62.38l.27.432c12.09 20.796 8.929 41.602 3.97 62.399-.036.143-.054.287-.09.43-5.066 20.806-11.858 41.593-8.786 62.398.018.144.054.287.09.432 3.126 20.786 16.44 41.592 50.881 62.38.252.143.486.306.738.449 32.402 20.189 89.5 40.394 148.788 60.585-.423.245-.845.492-1.27.736-59.08-20.067-116.086-40.12-148.651-60.19-.234-.143-.484-.287-.718-.43-34.855-20.788-48.474-41.594-51.834-62.38a3.772 3.772 0 0 1-.036-.45c-3.306-20.786 3.342-41.592 8.3-62.38l.108-.43c4.887-20.797 8.05-41.603-3.97-62.399-.09-.144-.18-.287-.252-.43-11.822-20.798-41-41.602-92.528-62.399-.359-.144-.718-.288-1.06-.431a783.315 783.315 0 0 0-19.752-7.688c.336-.548.682-1.09 1.023-1.637 7.283 2.724 14.316 5.449 21.011 8.175zm-11.534 5.713c.359.153.718.297 1.078.45 51.743 20.795 80.4 41.584 91.989 62.379.09.154.18.296.251.45 11.768 20.796 8.57 41.584 4.007 62.379-.036.144-.072.287-.09.433-4.671 20.804-10.654 41.59-6.486 62.397.036.144.054.288.09.43 4.24 20.806 19.062 41.592 55.516 62.399.252.143.486.287.738.43 33.051 19.462 89.616 38.94 147.767 58.403-.416.224-.837.44-1.255.662-57.912-19.315-114.32-38.616-147.447-57.931-.252-.146-.52-.29-.754-.433-36.85-20.788-51.978-41.592-56.452-62.38-.018-.142-.036-.304-.072-.447-4.42-20.788 1.402-41.595 5.965-62.381.018-.145.036-.289.072-.432 4.474-20.795 7.69-41.601-4.024-62.398-.072-.144-.162-.287-.234-.43-11.553-20.797-40.083-41.603-91.881-62.4-.377-.142-.737-.287-1.114-.43a714.944 714.944 0 0 0-13-5.09c.312-.563.625-1.126.942-1.686a699.08 699.08 0 0 1 14.394 5.626zm-11.57 5.731c.359.145.736.288 1.095.432 52.085 20.796 80.15 41.583 91.54 62.38.072.151.144.296.216.448 11.516 20.797 8.336 41.585 4.24 62.382l-.054.43c-4.186 20.806-9.307 41.591-3.953 62.398l.108.43c5.408 20.806 21.775 41.594 60.349 62.398.252.146.522.289.773.433 33.474 18.628 89.126 37.27 145.914 55.902-.414.208-.83.414-1.245.62-56.506-18.456-111.9-36.921-145.405-55.373-.27-.143-.54-.305-.81-.449-39.004-20.787-55.677-41.594-61.337-62.381-.036-.144-.072-.306-.108-.449-5.605-20.788-.664-41.592 3.396-62.379.036-.144.054-.287.072-.43 3.989-20.798 7.169-41.604-4.294-62.398l-.27-.433c-11.336-20.796-39.292-41.6-91.45-62.398-.359-.143-.7-.287-1.077-.43a606.395 606.395 0 0 0-5.94-2.342c.284-.565.559-1.139.848-1.702 2.505.97 4.973 1.94 7.391 2.911zm84.622 194.615c6.648 20.805 24.632 41.591 65.47 62.397.287.144.575.287.844.431 33.677 17.719 87.984 35.425 143.175 53.14-.4.185-.799.376-1.2.56-54.835-17.515-108.86-35.04-142.55-52.55-.287-.144-.574-.305-.862-.45-41.305-20.787-59.63-41.591-66.512-62.379a4.003 4.003 0 0 1-.144-.43c-6.827-20.806-2.803-41.594.719-62.398l.054-.433c3.431-20.804 6.486-41.6-4.815-62.397-.09-.144-.162-.288-.234-.43C99.96 17.06 72.593-3.693 20.231-24.454c.26-.58.534-1.152.8-1.73.035.016.072.03.108.044.359.143.718.288 1.077.43 52.463 20.797 79.97 41.602 91.217 62.4l.27.43c11.318 20.797 8.246 41.583 4.707 62.38a3.574 3.574 0 0 0-.072.433c-3.63 20.803-7.852 41.59-1.276 62.396.054.144.108.288.144.432zM99.832 43.535C89.233 23.78 64.398 4.032 16.52-15.722c.237-.59.48-1.178.722-1.766 48.786 19.962 74.109 39.93 84.818 59.89.072.145.144.288.233.432 11.194 20.797 8.301 41.594 5.373 62.381-.018.144-.054.306-.072.449-3 20.788-6.289 41.592 1.563 62.38l.162.43c7.887 20.806 27.614 41.594 70.896 62.398.305.146.61.29.934.432 33.618 16.707 86.227 33.403 139.552 50.108-.391.167-.777.345-1.17.511-52.925-16.49-105.163-32.984-138.76-49.47-.323-.142-.61-.286-.916-.431-43.802-20.805-63.87-41.592-72.028-62.397l-.161-.431c-8.103-20.807-5.031-41.593-2.138-62.398l.053-.431c2.803-20.788 5.66-41.584-5.515-62.38-.072-.154-.162-.298-.234-.45zm166.461 118.76c.144.143.322.286.503.43 22.673 20.787 68.272 41.593 125.263 62.38.358.145.754.307 1.15.45 1.528.57 3.07 1.14 4.605 1.708-.42.447-.83.904-1.254 1.347-1.73-.641-3.463-1.283-5.184-1.924-.432-.143-.826-.286-1.222-.43-56.953-20.806-102.733-41.593-125.586-62.398a6.328 6.328 0 0 0-.503-.432c-23.608-20.788-28.119-41.591-25.352-62.38.019-.142.037-.287.072-.43 2.857-20.807 12.667-41.603 17.231-62.398l.107-.432c4.528-20.796 3.702-41.602-14.194-62.398-.143-.143-.25-.287-.394-.431-17.446-20.796-55.121-41.602-109.058-62.398-.359-.144-.718-.288-1.096-.43-15.565-6.15-32.406-12.299-49.054-18.448.442-.37.876-.75 1.32-1.117 16.635 6.137 33.483 12.275 49.082 18.414.377.153.755.297 1.132.449 54.096 20.796 92.097 41.583 109.757 62.38.109.152.252.296.36.449 18.146 20.796 19.153 41.584 14.732 62.38 0 .143-.035.287-.072.433-4.491 20.794-14.3 41.6-17.211 62.397-.037.143-.037.287-.072.43-2.876 20.806 1.509 41.592 24.938 62.399zM370.607-25.097C365-45.894 350.448-66.681 312.97-87.477c-.252-.144-.539-.287-.79-.431-33.987-19.456-93.795-38.92-160.578-58.377.403-.146.81-.284 1.215-.428 66.186 19.217 125.654 38.44 159.686 57.655.25.143.54.287.79.43 38.018 20.798 52.893 41.603 58.716 62.4.035.142.106.286.143.43 5.678 20.796 2.3 41.602 1.294 62.399v.43c-.9 20.797.43 41.601 19.152 62.398.108.144.252.287.395.43 11.416 12.511 29.54 25.023 56.965 37.532-.182.597-.366 1.194-.553 1.789-28.19-12.72-46.814-25.452-58.424-38.17-.144-.144-.252-.306-.396-.45-18.757-20.785-20.05-41.582-19.08-62.378 0-.153.036-.297.036-.45 1.114-20.796 4.672-41.584-.79-62.38-.038-.152-.11-.296-.144-.45zM402.73 94.147c10.367 11.41 26.201 22.82 49.786 34.23-.16.608-.328 1.211-.492 1.816-24.37-11.635-40.67-23.258-51.235-34.896-.108-.143-.252-.305-.358-.45-18.65-20.796-20.052-41.6-19.62-62.397v-.432c.574-20.796 3.233-41.583-3.378-62.38a2.226 2.226 0 0 0-.143-.448c-6.793-20.797-22.926-41.584-63.027-62.38-.287-.153-.576-.297-.863-.45-34.076-18.244-91.991-36.48-155.79-54.723.403-.133.808-.262 1.212-.394 63.189 17.995 120.711 35.993 154.721 53.985.287.144.54.288.863.432 40.64 20.796 57.098 41.602 64.14 62.398.037.143.109.288.144.43 6.864 20.797 4.384 41.584 3.917 62.38v.45c-.324 20.796 1.078 41.602 19.69 62.4l.433.429zM.064 64.963c11.98 9.62 19.57 19.241 24.74 28.86.072.144.161.305.233.45 10.834 20.787 11.14 41.593 14.41 62.38l.053.45c3.378 20.787 8.265 41.591 29.663 62.38.162.143.305.286.467.43 21.219 20.806 63.225 41.593 137.426 62.398.523.145 1.043.289 1.564.431 17.314 4.909 36.077 9.803 55.703 14.706-.498.075-.999.139-1.498.21-18.437-4.586-36.138-9.183-52.516-13.766-.52-.142-1.025-.287-1.546-.432-75.082-20.804-117.824-41.592-139.402-62.398-.162-.143-.306-.287-.467-.43-21.776-20.806-26.824-41.593-30.328-62.399-.018-.142-.036-.286-.072-.43-3.377-20.806-3.755-41.593-14.57-62.398-.073-.145-.162-.288-.234-.431C18.679 85.616 11.405 76.267.039 66.919c.009-.653.01-1.306.025-1.956zm19.422 34.591c.09.146.161.29.233.432 10.726 20.788 11.373 41.593 15.236 62.38.036.144.054.306.09.449 4.006 20.787 9.684 41.594 32.986 62.38l.485.431c23.052 20.805 68.794 41.592 147.452 62.399l1.617.43c12.456 3.336 25.575 6.66 39.127 9.992-.529.061-1.057.124-1.587.182-12.28-3.006-24.212-6.021-35.564-9.024-.539-.143-1.078-.287-1.634-.43-79.557-20.807-126.126-41.594-149.536-62.398-.18-.144-.36-.287-.521-.433-23.698-20.804-29.52-41.592-33.67-62.398-.018-.143-.054-.287-.072-.43-3.988-20.806-4.689-41.592-15.379-62.398-.09-.143-.162-.286-.252-.43C14.307 92.755 8.545 84.84.112 76.91c-.02-.675-.036-1.35-.05-2.026 9 8.217 15.063 16.454 19.424 24.67zm-4.672 5.714c.09.144.162.287.234.43 10.564 20.808 11.516 41.594 15.936 62.399.036.143.072.289.09.432 4.635 20.788 11.067 41.593 36.418 62.38.198.144.378.305.557.448 24.974 20.789 74.903 41.594 158.106 62.38.576.144 1.131.289 1.707.432a2058.495 2058.495 0 0 0 20.58 5.094c-.59.047-1.182.09-1.774.131a2116.662 2116.662 0 0 1-16.578-4.075c-.557-.143-1.131-.289-1.707-.432-84.191-20.804-134.983-41.591-160.37-62.398l-.539-.43a129.18 129.18 0 0 1-3.75-3.154 231.075 231.075 0 0 1-22.044-26.848c-5.884-10.797-8.853-21.594-11.325-32.397a3.646 3.646 0 0 1-.09-.43c-4.545-20.787-5.551-41.593-16.08-62.381-.071-.144-.143-.306-.215-.448-3.293-6.325-7.553-12.634-13.315-18.957-.054-.718-.09-1.441-.137-2.16 6.261 6.665 10.831 13.316 14.296 19.984zm-4.042 5.713l.215.432c10.35 20.805 11.553 41.592 16.53 62.398l.107.43c.849 3.374 1.75 6.746 2.78 10.12-.655-1.14-1.29-2.29-1.925-3.443a256.3 256.3 0 0 1-1.483-5.545l-.108-.43c-5.067-20.787-6.342-41.593-16.637-62.38-.072-.143-.144-.305-.216-.449a88.606 88.606 0 0 0-8.23-13.197c-.1-.795-.182-1.596-.274-2.392a89.24 89.24 0 0 1 9.24 14.456zm-3.486 5.715c.072.142.144.305.216.448 8.167 16.845 10.673 33.702 14.235 50.55-.51-1.087-1.024-2.17-1.518-3.264-3.182-15.385-5.929-30.775-13.346-46.154-.072-.144-.144-.306-.216-.45a97.581 97.581 0 0 0-2.65-4.947c-.196-1.04-.392-2.081-.574-3.126a91.623 91.623 0 0 1 3.853 6.943zm1.6 16.81a148.686 148.686 0 0 1 3.22 10.32 228.503 228.503 0 0 1-3.22-10.32zm114.508 140.33a229.14 229.14 0 0 1-4.2-2.253c24.962 9.298 56.517 18.594 95.379 27.89a240.63 240.63 0 0 1-3.288-.234c-35.225-8.47-64.334-16.936-87.89-25.402zm115.695 25.97c-.665.025-1.33.055-1.997.075-70.756-16.678-119.897-33.358-150.457-50.037a231.893 231.893 0 0 1-3.679-2.992c30.176 17.53 80.551 35.072 154.663 52.6.48.113.976.236 1.47.353zM104.12 262.506a223.889 223.889 0 0 1-3.525-2.349c29.49 13.271 71.427 26.543 127.626 39.814h-.413c-.671-.006-1.342-.013-2.012-.026-52.77-12.479-92.806-24.96-121.676-37.439zm89.01 34.537c-2.597-.418-5.18-.88-7.748-1.384-11.509-2.948-22.247-5.894-32.26-8.84a228.62 228.62 0 0 1-8.554-3.222c14.499 4.483 30.648 8.965 48.562 13.446zM451.097 55.267c-.108-.143-.252-.287-.36-.43-17.103-20.797-19.655-41.584-22.96-62.38-.038-.154-.038-.296-.073-.45-3.269-20.796-5.964-41.583-21.451-62.38l-.324-.431c-15.668-20.796-46.21-41.602-110.674-62.398-.467-.144-.9-.288-1.365-.43-25.553-8.29-56.287-16.586-90.072-24.876.53-.06 1.056-.125 1.586-.18 32.584 7.97 62.26 15.933 87.156 23.905.467.143.898.287 1.365.431 65.362 20.797 96.445 41.601 112.362 62.398.144.143.252.287.361.431 15.774 20.797 18.576 41.602 21.954 62.398 0 .144.037.288.072.432 3.415 20.796 6.001 41.583 22.997 62.38.109.153.252.295.36.448a94.576 94.576 0 0 0 7.831 8.286c.023.686.052 1.37.068 2.058-3.323-3.066-6.257-6.143-8.833-9.212zm4.42-5.713c-.107-.143-.253-.288-.36-.431-16.673-20.796-19.369-41.602-23.105-62.398 0-.144-.035-.288-.072-.432-3.304-18.39-6.29-36.773-18.637-55.162a229.844 229.844 0 0 1 6.368 8.818c7.744 15.072 10.3 30.144 13.06 45.213.035.144.035.287.072.43 3.845 20.798 6.503 41.586 23.106 62.38.106.153.25.297.358.449a92.037 92.037 0 0 0 2.985 3.461c.056.716.098 1.437.147 2.154-1.383-1.493-2.715-2.987-3.923-4.482zM435.752-19.42c-1.576-7.863-3.107-15.724-5.399-23.586.61 1.08 1.223 2.158 1.816 3.248 1.686 6.396 2.962 12.791 4.266 19.189l.109.449c4.066 20.117 6.826 40.227 21.54 60.345.104.809.194 1.622.29 2.434-15.694-20.547-18.467-41.101-22.55-61.648-.037-.143-.037-.287-.072-.43zm3.413-5.283c-.035-.143-.072-.286-.106-.43l-.354-1.613a228.374 228.374 0 0 1 1.583 3.479c3.473 16.409 6.312 32.819 15.481 49.228.21 1.083.43 2.165.624 3.254-10.73-17.972-13.417-35.945-17.228-53.918zM255.945-157.637c.61.144 1.15.288 1.723.432 30.887 7.554 56.462 15.109 77.6 22.663 1.447.746 2.887 1.5 4.316 2.276-21.407-7.936-47.623-15.872-79.65-23.808-.54-.143-1.15-.288-1.727-.43-3.856-.972-7.824-1.939-11.82-2.908 1.158.081 2.312.176 3.465.274 2.049.5 4.082 1 6.093 1.501zm-20.967-2.3c11.14 2.674 21.8 5.34 31.961 8.014l1.617.431c36.23 9.449 64.424 18.896 86.349 28.343 1.209.784 2.416 1.57 3.61 2.376-21.956-9.855-50.592-19.711-87.911-29.569-.54-.153-1.078-.296-1.652-.45-11.494-3.06-23.669-6.114-36.42-9.176.816.01 1.633.014 2.446.03zm41.699 13.727c.504.144 1.006.287 1.545.432 42.377 11.796 72.707 23.596 94.474 35.395 1.253.992 2.499 1.992 3.73 3.01-21.61-12.418-52.391-24.835-96.406-37.255a88.078 88.078 0 0 0-1.546-.45c-17.331-4.92-36.465-9.83-56.937-14.751.673-.024 1.344-.058 2.02-.076 19.01 4.568 36.849 9.127 53.12 13.695zm10.062 6.846c-21.914-6.653-47.168-13.297-74.624-19.948.603-.047 1.21-.079 1.815-.12 26.105 6.313 50.198 12.62 71.3 18.935.466.144.97.288 1.437.431 54.463 16.208 87.145 32.419 107.135 48.627 2.5 2.536 4.942 5.128 7.323 7.778-18.65-18.419-51.834-36.833-112.913-55.254-.467-.153-.971-.297-1.473-.45zm-17.556-17.297c3.23.554 6.436 1.179 9.618 1.866a914.707 914.707 0 0 1 23.635 6.448 227.501 227.501 0 0 1 10.193 3.653c-13.083-3.99-27.535-7.98-43.446-11.967z"/></g></g></svg>