<svg xmlns="http://www.w3.org/2000/svg" width="24" height="24" viewBox="0 0 24 24"><g><g><path fill="#fff" d="M22.857 17.714a.572.572 0 0 1-.571.571H8a2.286 2.286 0 0 1-.157-4.555L4.696 1.142H.571A.571.571 0 1 1 .571 0h4.572c.261 0 .489.18.552.433l.686 2.732h17.048a.571.571 0 0 1 .558.692L21.7 14.407a.572.572 0 0 1-.558.45H8a1.143 1.143 0 0 0 0 2.285h14.286c.316 0 .571.256.571.572zM6.667 4.307l2.351 9.407h11.668l2.034-9.407zm5.905 17.407a2.286 2.286 0 1 1-4.572 0 2.286 2.286 0 0 1 4.572 0zm-1.143 0a1.142 1.142 0 1 0-2.285 0 1.142 1.142 0 0 0 2.285 0zm10.286 0a2.286 2.286 0 1 1-4.572 0 2.286 2.286 0 0 1 4.572 0zm-1.143 0a1.142 1.142 0 1 0-2.285 0 1.142 1.142 0 0 0 2.285 0z"/></g></g></svg>