<svg xmlns="http://www.w3.org/2000/svg" width="12" height="16" viewBox="0 0 12 16"><g><g><path fill="#ff3400" d="M10.804 9.743L6.001 16 1.198 9.744A6.105 6.105 0 0 1 0 6.089c0-1.928.913-3.763 2.443-4.91C3.985.027 6.004-.305 7.902.293c1.793.564 3.252 2.046 3.807 3.867.598 1.96.268 3.996-.905 5.584zM9.232 6.09c0-1.81-1.45-3.282-3.231-3.282-1.782 0-3.231 1.472-3.231 3.282S4.22 9.371 6 9.371c1.783 0 3.232-1.472 3.232-3.282zm-.923 0c0 1.293-1.035 2.345-2.308 2.345S3.693 7.382 3.693 6.089c0-1.292 1.035-2.338 2.308-2.338s2.308 1.046 2.308 2.338z"/></g></g></svg>